<svg xmlns="http://www.w3.org/2000/svg" width="930" height="936" fill="none"><path fill="#F2EFE6" d="M734.373 523.762a142.318 142.318 0 0 0 95.06-64.68c19.512-31.693 25.176-73.843 6.742-106.173-6.811-11.927-16.474-22.001-23.52-33.771-8.173-13.573-12.74-31.056-3.322-44.952 2.822-4.165 8.379-5.802 12.681-3.185 7.546 4.576 1.196 15.787 7.928 20.923a9.272 9.272 0 0 0 10.947-.118c6.938-5.008 7.566-13.299 9.604-20.776 1.872-6.86 5.086-14.132 2.597-20.805-1.401-3.773-5.88-5.949-9.673-5.88a6.862 6.862 0 0 1-6.252-9.8 16.336 16.336 0 0 1 9.957-8.722c9.329-2.637 19.766 3.459 23.579 12.377 3.812 8.918 1.754 19.6-3.695 27.636-2.421-9.457 8.33-19.424 17.571-16.297 9.242 3.126 11.76 17.581 4.067 23.627-1.264-5.713 5.087-11.025 10.888-10.309 5.802.715 10.32 5.654 12.564 11.064 6.017 14.524-1.078 31.154-10.212 43.953-9.133 12.799-20.678 24.5-25.009 39.651-3.264 11.368-2.068 23.461-1.96 35.28.382 71.393-47.442 142.012-115.64 163.091-12.309 3.803-25.206 6.125-36.682 11.976"/><path fill="#000" d="M722.524 567.96c11.476-5.88 24.373-8.173 36.682-11.975a144.93 144.93 0 0 0 18.835-7.301v-.677c.373-10.682-1.666-21.295-3.92-31.761a180.424 180.424 0 0 0-1.215-5.449 138.762 138.762 0 0 1-38.592 12.975l-11.79 44.188z"/><path fill="#000" d="M734.853 525.516a144.334 144.334 0 0 0 84.437-49.196c21.981-26.293 34.408-61.662 28.538-95.971a87.993 87.993 0 0 0-7.742-23.991c-4.224-8.565-10.075-16.121-15.808-23.706-10.231-13.534-22.06-30.556-17.444-48.53.98-3.684 2.646-8.281 5.704-10.78 2.803-2.254 7.203-2.538 9.8.206 2.097 2.225 2.019 5.655 2.166 8.497.156 3.106.382 6.438 2.205 9.075a10.38 10.38 0 0 0 9.437 4.302c4.126-.373 7.507-2.989 9.898-6.233a29.53 29.53 0 0 0 4.469-10.564c1.058-4.185 2.087-8.34 3.322-12.486 2.313-7.732 4.096-18.541-5.027-22.491a14.387 14.387 0 0 0-5.39-1.117 5.026 5.026 0 0 1-4.156-2.077c-2.361-3.293.285-7.125 2.715-9.506 5.782-5.665 14.622-4.557 20.698 0 6.918 5.184 9.29 14.033 7.663 22.304a32.255 32.255 0 0 1-4.9 11.692l3.332.441c-2.077-8.82 8.977-18.169 17.121-13.201 6.605 4.028 7.448 14.847 1.48 19.718l3.047.803c-.548-2.881 1.421-5.478 3.813-6.86a8.819 8.819 0 0 1 8.604-.058c5.978 3.077 8.928 10.29 9.535 16.66 1.382 14.543-6.987 27.988-15.405 39.082-8.418 11.094-18.081 22.089-21.923 35.858-4.106 14.7-1.391 30.302-2.234 45.325a175.715 175.715 0 0 1-68.189 127.763 154.047 154.047 0 0 1-32.026 18.62c-13.073 5.586-27.038 8.095-40.405 12.74a88.431 88.431 0 0 0-10.575 4.459c-2.097 1.058-.254 4.194 1.843 3.146 13.906-7.017 29.655-9.075 44.168-14.504a153.48 153.48 0 0 0 34.085-17.934 175.057 175.057 0 0 0 51.597-57.046 177.755 177.755 0 0 0 22.932-74.108c.539-7.154.47-14.298.304-21.472-.206-8.506-.353-17.159 1.842-25.48 3.851-14.543 14.514-25.872 23.255-37.651 8.546-11.417 16.268-25.725 14.161-40.602-.98-6.654-4.086-13.426-9.849-17.218-5.399-3.567-12.651-3.019-16.875 2.117a9.67 9.67 0 0 0-2.166 8.173c.284 1.48 2.087 1.587 3.048.803 6.213-5.076 6.517-15.052 2.048-21.364a13.56 13.56 0 0 0-10.427-5.938 16.118 16.118 0 0 0-11.907 4.998 15.246 15.246 0 0 0-4.41 14.17 1.843 1.843 0 0 0 3.332.441c4.9-7.359 7.262-16.718 5.096-25.48a24.073 24.073 0 0 0-15.004-16.66c-7.732-2.851-16.239-.705-21.217 5.959-2.234 2.989-3.626 6.517-2.117 10.153a8.743 8.743 0 0 0 8.085 5.39c4.038.127 7.497 2.156 8.438 6.252 1.117 4.9-.676 9.927-2.078 14.543-1.264 4.155-2.087 8.399-3.283 12.574-1.068 3.753-2.655 7.369-5.664 9.976-3.009 2.607-7.938 3.41-10.78 0-1.96-2.352-1.813-5.811-1.96-8.683-.157-3.087-.461-6.36-2.372-8.918a10.406 10.406 0 0 0-9.986-3.851c-8.359 1.313-12.103 11.348-13.132 18.688-1.195 8.566.804 17.199 4.204 25.049 7.605 17.572 22.717 30.508 30.821 47.824 15.19 32.468 7.507 72.001-11.426 101.185a140.77 140.77 0 0 1-80.066 58.389 138.065 138.065 0 0 1-12.27 2.773c-2.303.412-1.323 3.92.98 3.508l-.01.02z"/><path fill="#000" d="M759.196 392.854c3.783-3.43 7.664-6.772 11.339-10.31 3.038-2.94 5.664-6.448 5.743-10.839 0-2.175-.677-4.596.078-6.703a5.744 5.744 0 0 1 2.626-2.94c2.499-1.431 5.88-1.323 7.742 1.068a7.176 7.176 0 0 1-.607 9.252l3.116 1.283c.147-1.156 1.656-1.764 2.656-1.832a4.645 4.645 0 0 1 3.744 2.166c2.097 2.832 2.94 7.154.254 9.8-2.685 2.646-6.801 2.43-9.976.872-1.96-.98-3.92-1.627-5.88-.275-1.842 1.245-3.538 2.764-5.272 4.146l-12.642 9.986a1.842 1.842 0 0 0 0 2.577 1.86 1.86 0 0 0 2.577 0l13.397-10.525 3.214-2.538c.308-.311.67-.563 1.068-.745.578-.137 1.206.333 1.705.578a14.71 14.71 0 0 0 7.047 1.657c4.39-.196 8.731-2.94 9.849-7.399a12.634 12.634 0 0 0-4.734-12.613c-3.969-2.783-9.986-.98-10.633 4.106-.215 1.656 2.078 2.284 3.107 1.294 5.997-5.831 2.567-17.738-6.449-17.483a10.25 10.25 0 0 0-9.202 6.056c-.98 2.45-.49 5.008-.421 7.556a9.584 9.584 0 0 1-2.323 6.409 53.283 53.283 0 0 1-5.978 5.88l-7.703 6.978c-1.734 1.577.843 4.155 2.578 2.577l-.02-.039zM717.84 248.568c4.9 5.586 11.976 9.359 18.679 12.397a87.022 87.022 0 0 0 21.07 6.909c18.747 3.185 34.369-11.623 43.12-26.607a79.183 79.183 0 0 0 9.535-54.008c-.852-4.586-2.126-9.319-4.9-13.19-2.773-3.871-6.86-6.566-11.319-8.419-2.136-.891-4.321-1.636-6.526-2.352-2.205-.715-4.655-1.029-6.292.882-1.441 1.676-1.245 4.058-.823 6.067.568 2.665 1.235 5.311 1.764 7.987 3.871 19.296 4.4 41.767-8.938 57.82a43.277 43.277 0 0 1-4.743 4.831c-1.774 1.539.813 4.106 2.577 2.577 14.397-12.504 18.405-32.614 16.866-50.832a135.926 135.926 0 0 0-2.391-16.023c-.51-2.499-1.147-4.959-1.646-7.448a4.253 4.253 0 0 1-.059-2.244c.323-.833 1.293-.49 1.96-.294a42.72 42.72 0 0 1 12.015 5.125 19.208 19.208 0 0 1 7.457 10.653c2.607 8.31 3.068 17.463 2.245 26.097a75.59 75.59 0 0 1-6.968 25.255 67.276 67.276 0 0 1-15.445 21.226c-6.331 5.684-14.435 10.094-23.157 9.8-6.331-.225-13.034-2.606-19.012-4.949-6.733-2.636-13.603-5.88-19.208-10.544a31.026 31.026 0 0 1-3.381-3.244c-1.559-1.764-4.136.823-2.578 2.577l.098-.049zM387.051 630.161a1155.192 1155.192 0 0 1 21.854 90.395c1.539 7.673 2.989 15.611 1.303 23.246-1.47 6.713-5.252 12.661-9.251 18.237-21.217 29.587-50.127 52.92-71.961 82.056-2.009 2.685-4.048 5.674-3.999 9.026 0 2.94 1.676 5.605 3.313 8.045a174.44 174.44 0 0 0 93.854 69.022c8.262 2.469 17.003 4.331 25.48 2.695 8.477-1.637 16.66-7.478 18.62-15.857 1.96-8.379-4.184-18.453-12.798-18.502l56.614-60.084c13.514-14.347 27.548-29.625 32.125-48.794 3.4-14.2 1.215-29.096-1.284-43.492a1078.796 1078.796 0 0 0-29.547-125.382"/><path fill="#F2EFE6" d="M457.229 879.071c-21.07-2.714-40.484-13.553-56.321-27.714-14.817-13.25-26.803-29.322-37.838-45.884-11.897 12.427-23.774 24.873-34.074 38.622-2.009 2.685-4.048 5.674-3.999 9.026 0 2.94 1.676 5.605 3.313 8.046a174.438 174.438 0 0 0 93.854 69.021c8.262 2.47 17.003 4.332 25.48 2.695s16.66-7.477 18.62-15.856c1.96-8.379-4.184-18.454-12.798-18.503l16.66-17.64c-4.205-1.019-8.595-1.284-12.897-1.813z"/><path fill="#000" d="m562.589 628.318 71.795 271.176c1.528 5.763 3.155 11.76 6.928 16.347 11.26 13.808 33.163 8.33 49.676 1.636 28.891-11.691 47.472-17.924 73.275-35.407 6.723-4.567 13.455-9.8 16.876-17.17 3.42-7.369 2.42-17.395-4.273-22.011-8.663-5.978-22.54-.852-29.724-8.565-2.371-2.558-3.41-6.037-4.38-9.388a7413.325 7413.325 0 0 0-73.432-237.533M385.297 630.68a1173.124 1173.124 0 0 1 13.396 51.529 1208.96 1208.96 0 0 1 5.88 26.283c1.774 8.369 4.038 16.925 4.508 25.48a33.32 33.32 0 0 1-1.479 12.495 46.088 46.088 0 0 1-5.322 10.388 188.977 188.977 0 0 1-14.474 18.993c-10.281 12.161-21.502 23.52-32.458 35.044-5.419 5.704-10.78 11.476-15.935 17.425a356.04 356.04 0 0 0-7.712 9.28c-2.372 2.989-5.008 5.998-6.86 9.369a11.84 11.84 0 0 0-.716 10.614c1.421 3.371 3.793 6.389 5.929 9.329a174.41 174.41 0 0 0 13.426 16.278 177.004 177.004 0 0 0 70.707 46.334c13.848 4.851 30.998 9.8 44.286.863 5.224-3.509 9.35-8.938 9.938-15.347a17.964 17.964 0 0 0-7.145-15.68 13.655 13.655 0 0 0-7.84-2.636l1.284 3.116 44.649-47.412c6.86-7.291 13.847-14.494 20.511-21.962a134.785 134.785 0 0 0 16.268-21.56 67.888 67.888 0 0 0 8.987-25.862c1.274-10.28.127-20.688-1.48-30.86-3.302-20.953-7.595-41.797-12.328-62.475a1079.144 1079.144 0 0 0-16.053-61.74 945.224 945.224 0 0 0-2.244-7.576c-.666-2.244-4.184-1.293-3.508.98a1087.227 1087.227 0 0 1 16.297 60.76 1075.537 1075.537 0 0 1 12.74 61.613c1.784 10.084 3.548 20.256 3.489 30.537a63.35 63.35 0 0 1-6.262 27.675c-8.046 16.483-21.668 29.557-34.085 42.747l-43.972 46.658-5.527 5.88a1.842 1.842 0 0 0 1.293 3.107c5.694.137 9.8 5.106 11.025 10.349 1.372 6.007-1.803 11.76-6.429 15.503-12.034 9.634-28.919 4.626-41.973.128a173.007 173.007 0 0 1-68.355-43.934 167.252 167.252 0 0 1-13.328-15.739 92.635 92.635 0 0 1-5.949-8.624 8.468 8.468 0 0 1 .245-10.378 99.02 99.02 0 0 1 6.919-9.212 305.537 305.537 0 0 1 7.419-8.82c4.949-5.645 10.064-11.142 15.229-16.581 10.594-11.143 21.403-22.099 31.36-33.81 4.949-5.812 9.722-11.76 14.073-18.072 4.351-6.311 7.908-12.916 8.82-20.58.921-8.094-.98-16.268-2.617-24.166a1151.537 1151.537 0 0 0-5.4-25.128 1142.19 1142.19 0 0 0-15.719-61.583c-.637-2.254-4.155-1.303-3.508.98z"/><path fill="#F2EFE6" d="M776.866 842.889c-8.664-5.978-22.54-.852-29.724-8.565-2.371-2.558-3.41-6.037-4.38-9.388a996.327 996.327 0 0 0-4.028-13.72c-40.494 12.191-80.772 28.91-112.857 56.134 2.829 10.708 5.664 21.423 8.506 32.144 1.529 5.763 3.156 11.76 6.929 16.347 11.26 13.808 33.163 8.33 49.676 1.636 28.891-11.691 47.471-17.924 73.275-35.407 6.723-4.567 13.455-9.8 16.875-17.17 3.421-7.369 2.421-17.395-4.272-22.011z"/><path fill="#000" d="m560.835 628.809 21.795 82.32 21.619 81.673 21.795 82.32 5.4 20.423c1.538 5.802 2.822 11.848 5.645 17.199 4.733 8.987 13.837 13.269 23.716 13.504 9.878.236 19.972-2.773 29.184-6.389 10.711-4.204 21.433-8.448 32.026-12.946a256.985 256.985 0 0 0 28.783-14.181 231.167 231.167 0 0 0 15.259-9.662c4.713-3.234 9.349-6.772 12.916-11.29 6.066-7.673 8.614-19.247 2.019-27.44-6.429-8.016-17.405-5.557-26.205-7.752a12.732 12.732 0 0 1-5.753-2.871c-2.048-1.96-3.097-4.547-3.92-7.174-2.029-6.478-3.802-13.044-5.713-19.551a4472.612 4472.612 0 0 0-11.956-40.356 7636.79 7636.79 0 0 0-24.5-80.194 6280.723 6280.723 0 0 0-25.48-79.899 4669.202 4669.202 0 0 0-6.38-19.541c-.725-2.215-4.244-1.274-3.509.98a7017.86 7017.86 0 0 1 25.284 78.576 7407.376 7407.376 0 0 1 24.295 78.557 7767.305 7767.305 0 0 1 23.52 79.145c1.47 5.037 2.94 10.211 7.487 13.377 3.783 2.656 8.614 3.155 13.093 3.518 4.478.363 9.388.402 13.455 2.607s6.243 6.615 6.527 11.182c.696 11.27-8.516 19.217-16.974 25.039a232.51 232.51 0 0 1-29.233 17.12c-9.506 4.655-19.316 8.644-29.145 12.574-10.124 4.037-20.188 8.663-30.812 11.24-8.741 2.117-19.07 3.234-27.146-1.636-4.468-2.695-7.408-7.017-9.221-11.839-2.215-5.88-3.528-12.162-5.145-18.238l-21.364-80.712-21.286-80.36-21.286-80.36-5.233-19.777c-.607-2.264-4.116-1.303-3.518.98l-.039-.166z"/><path fill="#F2EFE6" d="M431.063 476.154c15.386 4.498 33.32-1.96 42.297-15.249 6.223-9.222 8.163-20.727 13.896-30.252 10.163-16.866 34.065-24.834 51.186-15.092 3.753 2.136 7.203 5.027 11.397 6.095 8.761 2.225 17.64-4.547 21.491-12.74 2.94-6.35 4.9-14.749 11.662-16.493 7.497-1.96 13.72 6.448 15.141 14.053 3.205 16.827-5.88 35.28-21.226 42.904-15.68 7.84-36.946 5.88-47.648 19.669-7.105 9.183-6.537 21.903-8.653 33.32a66.86 66.86 0 0 1-11.692 27.156c-5.204 7.134-14.043 13.72-22.226 10.388"/><path fill="#000" d="M430.583 477.908c13.004 3.734 27.44.176 37.671-8.575 5.586-4.792 9.163-11.045 11.956-17.767 2.94-7.086 5.086-14.632 9.32-21.1a39.545 39.545 0 0 1 30.772-17.277 32.017 32.017 0 0 1 17.218 3.92c3.381 1.96 6.449 4.331 10.104 5.733a16.383 16.383 0 0 0 10.32.372c6.654-1.901 12.171-7.36 15.023-13.553 1.303-2.813 2.313-5.763 3.675-8.546 1.166-2.411 2.636-4.9 5.037-6.252 5.959-3.352 11.339 2.871 13.436 7.84 2.45 5.88 2.274 12.867.872 18.943a40.09 40.09 0 0 1-8.82 17.346 38.001 38.001 0 0 1-15.748 10.692c-11.947 4.381-25.657 4.684-36.545 11.76a29.283 29.283 0 0 0-11.887 15.788c-2.313 7.075-2.597 14.602-3.714 21.903a67.218 67.218 0 0 1-7.497 22.412c-3.558 6.429-8.242 13.025-15.151 16.131a12.015 12.015 0 0 1-9.486.422c-2.186-.843-3.136 2.675-.98 3.518 7.242 2.803 14.7-1.186 19.923-6.174 5.753-5.537 9.8-13.015 12.74-20.394 2.94-7.379 4.067-15.278 5.037-23.236.882-7.183 1.96-14.7 6.155-20.815 7.546-10.917 22.54-12.348 34.3-15.366 6.399-1.627 12.808-3.754 18.247-7.605a43.305 43.305 0 0 0 17.993-35.035c-.049-6.801-1.842-13.916-6.86-18.826a12.507 12.507 0 0 0-8.536-3.92 11.42 11.42 0 0 0-8.261 3.704c-4.391 4.704-5.341 11.378-8.693 16.66-3.469 5.508-9.927 10.467-16.787 9.428-3.822-.568-7.027-2.989-10.212-4.998a35.926 35.926 0 0 0-9.045-4.175c-12.201-3.606-25.98-.294-36.015 7.272a42.305 42.305 0 0 0-12.603 15.562c-3.499 7.174-5.537 14.965-9.251 22.04a36.375 36.375 0 0 1-14.083 14.847 38.21 38.21 0 0 1-19.139 5.155 34.351 34.351 0 0 1-9.516-1.362c-2.264-.647-3.224 2.871-.98 3.518l.01.01z"/><path fill="#F2EFE6" d="M294.745 583.317a6491.292 6491.292 0 0 1-98.814-219.667c-11.328-26.46-22.716-54.665-18.796-83.193 3.597-26.097 19.669-48.862 37.965-67.845 50.852-52.793 119.903-83.369 187.092-112.7 25.176-10.976 52.508-22.197 79.311-16.2 22.854 5.126 41.102 21.943 57.203 38.946a655.136 655.136 0 0 1 62.612 77.067c5.772 8.34 11.486 17.101 13.407 27.068 1.92 9.966-.843 21.481-9.183 27.244-13.975 9.653-36.877 0-48.02 12.74-9.663 11.054-4.145 33.075-17.738 38.621-5.694 2.333-12.103.167-18.11-1.176-18.836-4.214-44.385 6.802-41.886 25.931 1.46 11.172 12.25 22.325 6.488 32.007-6.311 10.594-22.481 4.253-34.672 6.066-12.878 1.911-22.05 14.553-24.079 27.44s1.548 25.902 5.429 38.328c6.213 19.923 13.789 40.356 28.94 54.713 15.15 14.357 39.934 20.58 57.212 8.899 10.976-7.438 21.56-21.854 33.81-16.719 4.381 1.842 7.34 5.88 10.829 9.114 12.034 11.123 32.409 11.652 45.002 1.166 7.467-6.223 11.916-15.278 18.286-22.608 6.37-7.331 16.513-13.152 25.559-9.624 12.064 4.704 15.817 23.353 28.694 24.716 13.72 1.45 22.746-18.856 36.427-16.954 9.28 1.293 13.72 11.838 16.415 20.805 9.682 32.222 19.325 67.228 7.614 98.764-11.818 31.841-42.934 52.47-74.48 65.063-76.832 30.674-162.68 25.921-245.127 18.62-24.167-2.029-48.814-4.479-70.815-14.553-22.001-10.075-41.532-38.838-56.546-72.079"/><path fill="#000" d="M366.697 599.928a183.215 183.215 0 0 1-22.746 48.883c-.196.294-.441.617-.784.637a1.205 1.205 0 0 1-.784-.422l-15.318-14.7c-2.94-2.803-6.085-6.174-5.772-10.211.265-3.362 2.872-6.008 5.39-8.242a166.43 166.43 0 0 1 20.982-15.915"/><path fill="#000" d="M364.942 599.448a181.417 181.417 0 0 1-9.565 25.245 187.29 187.29 0 0 1-6.134 11.936c-1.078 1.96-2.186 3.812-3.332 5.694-.608.98-1.225 1.96-1.862 2.94-.314.49-.628.98-.98 1.48-.157.245-.314.49-.481.735-.352.431-.323.48.059.166h.98c-.509-.107-1.725-1.636-2.234-2.126l-2.617-2.499-5.223-4.998c-1.784-1.705-3.577-3.411-5.351-5.126a24.668 24.668 0 0 1-3.783-4.302 6.856 6.856 0 0 1-1.254-4.9 9.342 9.342 0 0 1 2.724-4.557 94.423 94.423 0 0 1 10.075-8.673c4.057-3.175 8.271-6.135 12.602-8.918 1.96-1.264.138-4.42-1.842-3.146a168.716 168.716 0 0 0-21.491 16.317c-2.784 2.499-5.488 5.488-5.782 9.408-.294 3.92 2.303 7.439 4.9 10.143 3.253 3.332 6.722 6.468 10.084 9.683l5.125 4.861c1.421 1.362 3.381 3.635 5.371 1.695a13.195 13.195 0 0 0 1.705-2.43c.637-.98 1.264-1.96 1.881-2.94a170.836 170.836 0 0 0 3.254-5.479 175.998 175.998 0 0 0 6.125-11.691 186.72 186.72 0 0 0 10.584-27.518c.676-2.254-2.842-3.215-3.508-.98l-.03-.02z"/><path fill="#000" d="M296.313 582.396a6821.276 6821.276 0 0 1-56.076-122 8058.48 8058.48 0 0 1-27.204-61.691c-8.82-20.228-18.189-40.376-25.627-61.152-7.115-19.855-11.927-41.258-7.527-62.289 3.92-18.797 14.23-35.623 26.46-50.196 24.5-29.272 56.154-52.283 88.974-71.383 33.124-19.286 68.208-34.878 103.283-50.196 19.492-8.516 39.67-17.747 61.161-19.364 20.453-1.53 38.759 5.791 54.675 18.267 15.68 12.279 29.066 27.646 42.071 42.62a652.441 652.441 0 0 1 39.484 50.303c9.986 14.093 24.5 33.673 13.975 51.352-8.702 14.563-28.557 8.82-42.336 12.299a21.668 21.668 0 0 0-14.7 11.643c-2.871 6.017-3.558 12.74-4.988 19.149-1.5 6.684-4.244 13.945-12.054 14.837-5.018.569-9.918-1.342-14.779-2.273a42.163 42.163 0 0 0-10.241-.677c-12.367.686-27.204 6.527-31.84 19.042-2.587 6.968-.49 13.926 2.313 20.472 2.94 6.86 8.702 17.493.549 23.197-5.88 4.096-14.808 2.156-21.413 1.852-7.654-.343-14.818.676-21.07 5.419-15.171 11.525-16.043 31.733-12.142 48.834a236.108 236.108 0 0 0 8.771 28.537 137.454 137.454 0 0 0 11.426 24.5c8.82 14.465 21.707 26.225 38.436 30.478a45.797 45.797 0 0 0 23.579.069c7.84-2.205 13.857-7.164 19.943-12.319 5.605-4.763 13.083-11.76 21.148-9.702 4.479 1.176 7.448 4.9 10.594 8.036a34.746 34.746 0 0 0 9.388 6.752c14.289 6.86 31.939 4.009 42.875-7.565 6.223-6.586 10.29-14.945 16.719-21.345 6.066-6.036 15.68-11.074 23.912-6.223 10.653 6.263 14.191 23.756 28.518 23.873 6.449.059 11.839-4.057 16.601-7.918 4.763-3.861 10.3-9.369 16.925-9.222 8.516.176 12.74 9.241 15.161 16.17 3.253 9.398 5.879 19.149 8.222 28.792 5.017 20.228 8.291 41.748 3.508 62.358-8.31 35.819-40.18 58.672-72.314 72.245-37.808 16.023-78.919 22.883-119.678 24.932-41.228 2.067-82.535-.686-123.607-4.234-20.629-1.784-41.542-3.41-61.407-9.633-8.31-2.597-16.444-5.88-23.52-10.996a94.429 94.429 0 0 1-17.414-17.013c-11.917-14.612-20.953-31.526-28.724-48.637-.98-2.127-4.106-.284-3.146 1.842 8.026 17.64 17.444 35.045 29.861 50.068a97.108 97.108 0 0 0 17.267 16.66c6.997 5.126 15.024 8.448 23.226 11.114 19.6 6.379 40.288 8.183 60.692 9.966 21.089 1.843 42.208 3.489 63.357 4.42 41.787 1.833 84.005.911 125.136-7.252a306.291 306.291 0 0 0 59.064-17.777c15.935-6.713 31.262-15.288 44.375-26.656 13.112-11.368 23.667-25.764 28.773-42.493 6.056-19.796 4.282-40.935.049-60.907-2.196-10.378-5.087-20.58-8.115-30.752-2.224-7.497-4.527-15.925-10.437-21.462a15.76 15.76 0 0 0-17.64-2.735c-6.252 2.803-10.927 8.105-16.523 11.898-5.791 3.92-12.279 5.086-17.963.294-5.184-4.361-8.33-10.643-12.946-15.533-5.135-5.439-11.907-8.203-19.374-6.39-8.409 2.029-14.789 8.32-19.816 15.023-5.527 7.36-10.241 15.896-18.395 20.718a33.838 33.838 0 0 1-24.588 3.606 32.038 32.038 0 0 1-11.397-5.018c-3.577-2.528-6.194-6.066-9.545-8.82-6.008-4.949-13.172-5.154-19.914-1.548-7.517 4.028-13.171 10.692-20.198 15.425a36.742 36.742 0 0 1-23.902 5.694c-18.62-1.617-33.585-13.916-43.179-29.282a134.89 134.89 0 0 1-12.201-26.255c-3.42-9.613-6.703-19.472-8.702-29.488-1.999-10.015-2.372-21.001 2.146-30.517 3.665-7.703 10.28-14.455 18.924-16.043 11.76-2.156 33.477 6.047 38.014-10.417 2.225-8.085-3.254-16.092-5.949-23.344-2.636-7.075-2.606-14.239 2.499-20.188 4.606-5.36 11.427-8.477 18.209-9.996a42.056 42.056 0 0 1 11.231-.98c4.478.216 8.673 1.588 13.043 2.411 7.399 1.382 14.828.206 19.208-6.429 3.607-5.478 4.283-12.465 5.567-18.737 1.391-6.782 3.4-13.985 9.741-17.748 6.605-3.92 14.984-3.518 22.373-3.861 7.164-.333 14.828-.98 20.972-5.057 6.439-4.283 9.889-11.574 10.78-19.1 1.049-9.114-1.96-17.983-6.34-25.882-4.998-9.075-11.388-17.473-17.493-25.813a662.407 662.407 0 0 0-40.494-49.98c-12.985-14.504-26.372-29.4-42.542-40.386-16.66-11.339-35.554-16.278-55.585-13.642-20.913 2.764-40.357 11.76-59.506 20.09-18.022 7.84-36.005 15.837-53.743 24.353-34.878 16.739-68.953 35.712-99.147 60.065-15.033 12.132-29.4 25.558-41.375 40.719-11.603 14.621-21.217 31.36-24.657 49.911-3.92 20.923.676 42.081 7.713 61.828 7.438 20.904 16.875 41.16 25.715 61.485a6537.24 6537.24 0 0 0 55.732 124.666 6790.477 6790.477 0 0 0 27.989 60.074c.98 2.117 4.146.275 3.146-1.842zm566.861-311.64c-.715 4.136-1.333 8.477-.147 12.593a12.47 12.47 0 0 0 6.36 8.007 10.202 10.202 0 0 0 14.514-10.055c-.098-1.255-1.519-2.421-2.744-1.568-3.175 2.215-4.047 6.242-3.695 9.917a17.646 17.646 0 0 0 4.459 10.222c2.617 2.871 6.302 4.753 10.232 4.175a13.47 13.47 0 0 0 8.82-5.978c2.626-3.862 3.351-8.664 3.978-13.191a1.88 1.88 0 0 0-1.264-2.235 1.833 1.833 0 0 0-2.244 1.274c-.578 4.087-1.137 8.448-3.41 11.996-1.784 2.773-5.155 5.194-8.605 4.508-3.449-.686-6.38-4.175-7.565-7.468-.98-2.803-1.813-8.036 1.107-10.074l-2.744-1.578a6.858 6.858 0 0 1-2.852 6.262 6.711 6.711 0 0 1-7.144.137c-5.321-3.253-4.469-10.78-3.577-15.974.402-2.293-3.107-3.273-3.508-.98l.029.01z"/><path fill="#F2EFE6" d="M342.882 573.683c-59.545 46.952-125.195 41.542-150.008 26.343-24.814-15.2-46.913-52.558-42.376-81.34 5.136-32.458 40.416-66.64 39.573-99.461-.216-8.3-5.322-18.62-13.524-17.277-12.74 2.019-13.72 28.616-25.902 24.5-13.347-20.58 13.407-45.746 11.447-70.237a8.73 8.73 0 0 0-1.872-4.9c-4.224-5.096-11.27-1.489-15.631 2.568a78.306 78.306 0 0 0-18.826 27.038 1.392 1.392 0 0 0 2.499 1.225 64.458 64.458 0 0 0 8.095-26.156c.715-8.32-8.957-13.504-15.376-8.163-14.396 11.995-23.177 30.87-22.246 49.627a1.392 1.392 0 0 0 2.548.696 46.314 46.314 0 0 0 7.428-25.363c0-5.547-1.352-11.632-7.448-13.955a12.985 12.985 0 0 0-11.701 1.548c-10.094 6.596-11.28 20.923-14.22 31.547-3.783 13.671-7.526 27.567-7.634 41.855a82.115 82.115 0 0 0 8.82 37.593c6.017 11.917 15.621 21.413 21.56 33.418 8.261 16.582 10.133 35.711 15.905 53.165 10.526 31.899 35.81 58.281 65.347 73.5a143.709 143.709 0 0 0 37.357 13.181c54.694 11.084 110.74-9.8 151.381-46.511"/><path fill="#000" d="M341.589 572.4a175.484 175.484 0 0 1-47.481 26.812 156.5 156.5 0 0 1-44.414 9.536 124.243 124.243 0 0 1-36.554-2.774 65.702 65.702 0 0 1-27.44-13.377 100.933 100.933 0 0 1-27.44-37.377c-5.88-13.602-8.438-28.528-4.42-42.992 4.234-15.23 12.887-28.92 20.58-42.601 7.488-13.387 15.2-27.509 17.16-42.953.892-6.978.48-14.406-3.508-20.443a13.358 13.358 0 0 0-7.448-5.88 11.027 11.027 0 0 0-8.115 1.146c-4.4 2.47-7.016 7.301-9.29 11.594-1.96 3.655-3.92 8.732-7.36 11.074a4.843 4.843 0 0 1-4.645.519l1.088.843c-6.38-10.035-2.548-21.717 1.489-31.86 4.44-11.172 10.33-22.54 10.31-34.858 0-3.313-.451-6.606-2.793-9.134a8.816 8.816 0 0 0-8.085-2.528c-6.527 1.058-11.682 6.86-15.758 11.593a79.681 79.681 0 0 0-11.966 18.483c-.608 1.293-1.607 2.852-1.598 4.302a3.266 3.266 0 0 0 2.519 3.058 3.185 3.185 0 0 0 3.312-1.255 29.855 29.855 0 0 0 2.833-5.478 64.678 64.678 0 0 0 5.703-21.874 11.417 11.417 0 0 0-8.516-11.76c-6.39-1.626-11.074 2.94-15.131 7.203a64.673 64.673 0 0 0-11.701 17.15 63.69 63.69 0 0 0-5.606 19.708 55.764 55.764 0 0 0-.363 4.949 17.95 17.95 0 0 0 .177 5.077 3.264 3.264 0 0 0 3.175 2.303c1.774 0 2.656-1.49 3.469-2.852a48.342 48.342 0 0 0 6.762-21.795c.363-5.675-.098-12.535-4.723-16.533-5.508-4.753-13.378-3.636-18.777.637-4.597 3.646-7.272 9.036-9.065 14.514-1.872 5.703-2.852 11.652-4.45 17.444-2.244 8.153-4.459 16.327-5.88 24.676-2.743 16.004-1.96 32.252 3.832 47.52a90.858 90.858 0 0 0 10.927 19.963c4.371 6.184 9.095 12.162 12.8 18.796 7.624 13.652 10.152 29.4 13.974 44.345a126.77 126.77 0 0 0 16.219 38.103c15.004 23.128 37.377 41.307 62.661 52.136 27.499 11.76 57.967 14.582 87.338 9.32 28.194-5.047 54.978-17.297 77.988-34.242a210.083 210.083 0 0 0 16.141-13.161c1.744-1.578-.843-4.145-2.578-2.577a197.533 197.533 0 0 1-55.389 35.417 168.278 168.278 0 0 1-63.808 13.524 144.763 144.763 0 0 1-67.953-16.219 137.832 137.832 0 0 1-47.04-39.945 117.053 117.053 0 0 1-14.975-26.96c-4.223-10.888-6.438-22.383-9.27-33.673-2.833-11.289-6.537-22.608-12.966-32.565-6.429-9.957-14.132-18.62-18.963-29.4a80.359 80.359 0 0 1-6.86-35.574c.45-12.946 3.793-25.539 7.213-37.955 2.4-8.703 3.312-18.464 8.379-26.157 2.617-3.92 6.86-7.428 11.76-7.467 4.9-.039 8.418 3.351 9.467 8.055 1.097 4.9.441 10.437-.716 15.288a44.748 44.748 0 0 1-2.94 8.487 44.297 44.297 0 0 1-1.96 3.714c-.156.265-.93 1.235-.784 1.519.569 1.069.471-1.264.471-1.391a58.726 58.726 0 0 1 8.114-30.223 61.568 61.568 0 0 1 9.8-12.74c2.989-2.94 6.213-6.174 10.78-4.773 3.92 1.205 5.665 4.841 5.312 8.683a62.476 62.476 0 0 1-4.204 17.258 56.774 56.774 0 0 1-1.745 3.92 60.557 60.557 0 0 1-1.078 2.126c-.191.299-.361.61-.509.931-.226.637-.432.245.205.294.637.049.216.667.677-.372.264-.618.539-1.225.833-1.833a57.204 57.204 0 0 1 1.911-3.822 76.618 76.618 0 0 1 9.702-14.082c3.234-3.705 6.948-7.987 11.701-9.712 1.872-.686 4.057-.98 5.782.235 2.215 1.568 2.558 4.243 2.607 6.752.343 18.738-13.515 34.202-15.161 52.567a26.32 26.32 0 0 0 1.431 12.113c.705 1.764 1.695 4.812 3.645 5.439a8.687 8.687 0 0 0 4.312.245c5.753-1.117 8.654-8.075 11.074-12.671 2.421-4.596 5.733-11.986 11.849-12.191 4.174-.138 6.997 3.498 8.594 6.938a25.83 25.83 0 0 1 1.96 12.642c-.568 9.496-3.92 18.679-7.938 27.224-4.4 9.428-9.692 18.415-14.778 27.489-9.242 16.504-18.904 34.359-17.121 53.9 1.784 19.542 11.643 38.495 24.5 53.195 5.88 6.693 12.681 12.897 20.453 17.297a69.802 69.802 0 0 0 16.327 6.448c15.297 4.126 31.565 4.685 47.255 2.94a166.281 166.281 0 0 0 58.261-17.983 185.752 185.752 0 0 0 29.008-18.855c1.843-1.45-.745-4.018-2.577-2.577z"/><path fill="#3EF194" d="M857.892 262.318a26.938 26.938 0 0 0-9.702-12.926c-9.124-6.331-21.56-7.409-31.869-3.411-12.182 4.743-19.169 19.091-17.023 31.978 2.499 15.003 16.778 29.478 32.546 29.057 12.485-.334 22.883-10.565 26.587-22.001a35.338 35.338 0 0 0-.539-22.697z"/><path fill="#3EF194" d="M859.656 261.828a29.248 29.248 0 0 0-13.514-15.818 36.425 36.425 0 0 0-20.639-4.027c-6.654.656-13.063 2.94-18.081 7.438a31.956 31.956 0 0 0-9.359 15.964c-3.165 12.828 2.195 26.166 11.907 34.78a33.42 33.42 0 0 0 17.199 8.369 27.124 27.124 0 0 0 18.806-4.194c12.123-7.918 17.846-22.795 15.22-36.868a36.015 36.015 0 0 0-1.539-5.605c-.804-2.186-4.322-1.235-3.518.98a32.93 32.93 0 0 1-8.467 35.613 24.967 24.967 0 0 1-15.475 6.762 27.175 27.175 0 0 1-16.219-4.9c-9.525-6.399-16.111-17.914-15.131-29.527a29.287 29.287 0 0 1 5.88-15.23 25.025 25.025 0 0 1 13.926-9.045c12.191-3.126 26.881.715 33.477 12.064a29.416 29.416 0 0 1 1.96 4.233c.911 2.156 4.4 1.216 3.567-.989zm-183.76 4.782a48.235 48.235 0 0 1-21.932 39.131c-10.829 6.86-23.873 9.085-36.133 12.897-12.26 3.812-24.862 10.261-30.331 21.884a5.975 5.975 0 0 0-.725 3.998 6.864 6.864 0 0 0 1.656 2.538l27.127 30.116c5.262 5.88 11.466 12.152 19.335 12.318a10.248 10.248 0 0 0 6.125-1.676c2.695-1.96 3.861-5.292 5.723-8.036 5.743-8.486 17.209-10.221 27.019-13.19 28.096-8.526 49.705-33.026 59.035-60.868.746-1.741.997-3.653.725-5.527-.539-2.284-2.479-3.92-4.302-5.4l-31.566-25.48c-5.997-4.841-13.171-9.996-20.707-8.34"/><path fill="#000" d="M674.073 266.61a46.677 46.677 0 0 1-15.601 33.457c-10.78 9.575-25.314 12.142-38.691 16.082-11.858 3.489-24.304 8.82-31.507 19.404-1.734 2.548-4.125 6.233-3.214 9.447.48 1.696 1.793 2.94 2.94 4.253l4.243 4.714 16.66 18.512c4.783 5.312 9.389 11.202 15.386 15.21 5.312 3.557 13.279 5.566 18.62.98 2.441-2.087 3.597-5.184 5.332-7.791a18.8 18.8 0 0 1 6.134-5.645c5.204-3.097 11.241-4.429 17.013-6.037a86.152 86.152 0 0 0 32.497-17.159 100.333 100.333 0 0 0 23.246-28.724 104.05 104.05 0 0 0 7.516-17.287c1.186-3.607 1.206-6.968-1.352-9.967a27.09 27.09 0 0 0-3.714-3.303l-4.9-3.998-19.395-15.68c-5.88-4.724-11.632-10.231-18.747-12.965a17.73 17.73 0 0 0-10.006-.922c-2.303.471-1.323 3.989.98 3.519 6.86-1.392 13.25 3.341 18.287 7.359 6.194 4.949 12.348 9.967 18.512 14.955l9.516 7.674c1.49 1.205 2.94 2.401 4.469 3.616a12.622 12.622 0 0 1 3.038 3.126c1.607 2.724-.441 6.556-1.431 9.222a97.106 97.106 0 0 1-3.538 8.251c-10.241 21.188-28.028 39.465-50.597 47.138-10.663 3.626-24.03 4.822-30.733 15.122-1.519 2.342-2.558 5.331-4.851 7.066-2.568 1.96-6.223 1.666-9.124.754-5.948-1.881-10.427-6.977-14.465-11.466l-16.356-18.149-7.84-8.713a27.345 27.345 0 0 1-3.518-4.027c-.843-1.451.206-3.176.902-4.489 5.664-10.682 17.522-16.297 28.567-19.747 12.994-4.057 27.077-6.291 38.416-14.337a50.374 50.374 0 0 0 19.913-30.449c.6-2.966.928-5.98.98-9.006.049-2.342-3.596-2.342-3.645 0h.058z"/><path fill="#3EF194" d="M755.08 385.602c-8.105-.471-15.876-3.264-23.853-4.734-7.977-1.47-16.817-1.45-23.52 3.146-7.066 4.9-10.143 13.603-12.799 21.766l-3.244 10.016a25.614 25.614 0 0 0-1.725 8.428c.108 5.105 3.342 9.8 7.586 12.632 4.243 2.832 9.378 4.047 14.464 4.537 9.644.931 19.875-.735 27.666-6.497a60.72 60.72 0 0 0 8.124-7.762l10.956-11.877c4.342-4.695 8.889-9.8 9.644-16.18a15.856 15.856 0 0 0-12.084-16.817"/><path fill="#000" d="M755.08 383.779c-15.317-.98-31.683-10.574-46.589-2.382-6.292 3.46-10.006 9.8-12.613 16.239-1.401 3.469-2.518 7.056-3.675 10.613-1.313 4.048-2.94 8.144-3.743 12.329-1.372 7.575 2.597 14.543 9.045 18.414 6.595 3.92 15.053 4.9 22.599 4.371 7.546-.529 14.984-2.685 21.011-7.301a71.652 71.652 0 0 0 8.82-8.546l9.134-9.888c5.007-5.429 10.593-11.319 11.23-19.061.53-6.507-3.312-13.083-8.908-16.297a16.249 16.249 0 0 0-4.567-1.764c-2.283-.51-3.263 2.998-.98 3.508a14.198 14.198 0 0 1 10.78 11.76c.902 6.654-3.851 12.387-8.016 16.974-2.724 2.94-5.488 5.948-8.232 8.918-2.744 2.969-5.223 5.801-8.016 8.516a33.47 33.47 0 0 1-18.248 9.055 42.648 42.648 0 0 1-20.737-1.548c-5.88-2.117-11.632-7.213-11.554-13.965.049-3.871 1.744-7.723 2.94-11.359 1.137-3.479 2.215-6.977 3.44-10.427 2.048-5.811 4.723-11.877 9.692-15.788 5.351-4.204 12.495-4.792 19.032-4.135 7.565.764 14.807 3.42 22.295 4.674a58.9 58.9 0 0 0 5.938.696c2.343.147 2.333-3.489 0-3.645l-.078.039z"/><path fill="#3EF194" d="M764.88 173.697c2.94 6.311-.264 14.161-5.664 18.62-5.4 4.459-12.436 6.183-19.247 7.712s-13.858 3.038-19.542 7.086c-10.642 7.575-13.582 24.039-6.213 34.829 4.214 6.174 10.957 10.182 17.915 12.936 13.161 5.213 28.714 6.37 41.091-.51 8.399-4.684 14.592-12.642 18.865-21.266a74.247 74.247 0 0 0 6.566-45.217c-1.362-7.84-4.351-16.023-10.78-20.815-6.429-4.792-16.915-4.626-21.364 2.038"/><path fill="#000" d="M763.342 174.618c1.842 4.067.607 8.761-1.725 12.338-2.715 4.155-7.174 6.762-11.76 8.428-9.976 3.655-21.423 3.763-30.321 10.114-6.86 4.9-10.78 13.092-11.172 21.471a27.522 27.522 0 0 0 2.411 12.495 28.682 28.682 0 0 0 9.025 10.731 51.261 51.261 0 0 0 13.368 6.978 61.879 61.879 0 0 0 15.552 3.548c10.143.98 20.678-1.088 29.028-7.115 8.349-6.027 14.18-14.926 18.091-24.363a75.891 75.891 0 0 0 5.654-32.418c-.46-9.8-2.42-20.659-9.153-28.195-5.576-6.252-15.415-9.026-22.981-4.606a13.637 13.637 0 0 0-4.371 4.126c-1.333 1.96 1.823 3.763 3.146 1.842 4.292-6.242 14.112-5.36 19.375-.98 7.232 6.017 9.437 16.288 10.172 25.225a73.236 73.236 0 0 1-4.038 30.616c-3.224 9.006-8.281 17.718-15.68 23.97-7.399 6.253-17.14 8.879-26.832 8.409a55.547 55.547 0 0 1-27.587-8.82 26.789 26.789 0 0 1-9.094-9.634 23.183 23.183 0 0 1-2.49-11.162c.147-7.634 3.764-15.317 10.251-19.6 8.536-5.566 19.218-5.723 28.587-9.153 4.567-1.676 9.084-4.077 12.25-7.84a19.35 19.35 0 0 0 4.782-11.966 14.577 14.577 0 0 0-1.372-6.301 1.842 1.842 0 0 0-2.499-.647 1.872 1.872 0 0 0-.656 2.489l.039.02z"/><path fill="#000" d="M742.85 224.392a6.47 6.47 0 0 0-4.508 10.78 7.32 7.32 0 0 0 6.762 1.734 6.858 6.858 0 0 0 5.018-5.037 8.222 8.222 0 0 0-2.352-7.957 1.825 1.825 0 1 0-2.578 2.577c.172.148.333.308.481.48.049.049.156.235.225.255l-.147-.186c0 .059.088.117.127.186.128.185.242.378.343.578.059.098.098.206.157.304s.059.137-.059-.118l.089.216c.058.176.117.353.166.539.02.227.066.45.137.666v-.254c.006.075.006.15 0 .225v.333c.015.265.015.53 0 .794 0 .402.089-.441 0 0 0 .088 0 .176-.049.274-.049.098-.098.392-.166.588-.069.196-.118.245-.108.314l.098-.225c-.027.068-.06.133-.098.196-.118.235-.255.45-.392.676-.137.225.274-.304 0 0l-.225.235c-.135.11-.262.228-.383.353l.206-.157-.166.118-.255.166-.275.147c-.441.226.275-.088 0 0-.274.088-.803.196-1.195.314 0 0 .48-.049.176 0h-.304a5.846 5.846 0 0 1-.725 0c-.186 0-.392-.137.079 0-.098 0-.206 0-.304-.049l-.598-.157c-.088 0-.196-.088-.284-.108.343.059.304.137.157.069a6.195 6.195 0 0 1-.618-.343l-.245-.177c.402.226.186.147.059 0a5.522 5.522 0 0 1-.421-.431c-.255-.274.225.363 0 0-.059-.088-.118-.166-.167-.255l-.098-.186c-.225-.441.069.275 0 0-.069-.274-.108-.382-.157-.578-.078-.363 0 .461 0 .088v-.901.088c0-.177 0-.196.069-.294.068-.098 0-.196.078-.294.079-.098.275-.51 0 0 .118-.206.206-.431.324-.637.117-.206.107-.167.166-.255.284-.402-.186.206 0 0s.275-.294.422-.431c.147-.137.166-.128.225-.196-.245.176-.284.215-.137.098l.166-.108.245-.147.177-.088c.176-.079.117-.059-.167.068.216-.049.441-.147.657-.196.215-.049-.461 0-.088 0h.411a1.842 1.842 0 0 0 1.823-1.822 1.863 1.863 0 0 0-1.823-1.823l.049-.049zm-556.562 29.909 136.789-77.42c52.028-29.468 104.918-59.603 145.755-103.272 3.567-3.812 7.144-7.938 8.438-12.995-11.76-1.127-22.06 7.752-33.644 10.143-18.012 3.724-35.358-8.663-47.706-22.285-12.348-13.622-23.167-29.753-39.827-37.544-27.891-13.053-60.29 1.882-87.014 17.18-34.908 19.982-72.413 45.52-80.047 85.015-5.429 28.037 5.812 56.203 13.72 83.662 1.441 5.008 2.774 10.222 1.96 15.376-2.264 15.141-20.325 21.835-29.155 34.3a4.785 4.785 0 0 0 6.449 2.264"/><path fill="#000" d="m187.2 255.87 65.258-36.946 65.248-36.956c19.189-10.859 38.416-21.678 57.232-33.173a590.166 590.166 0 0 0 53.714-36.535c8.595-6.664 16.944-13.651 24.941-21.02a327.177 327.177 0 0 0 11.633-11.28c3.694-3.764 7.614-7.537 10.554-11.917a23.506 23.506 0 0 0 3.274-6.988 1.854 1.854 0 0 0-1.764-2.303c-8.35-.705-15.965 3.205-23.383 6.478a51.046 51.046 0 0 1-11.701 3.92 31.764 31.764 0 0 1-12.201-.343c-16.66-3.645-28.94-16.944-39.534-29.4-10.593-12.456-21.334-25.48-36.926-31.566-16.356-6.399-34.467-3.714-50.588 2.02-16.366 5.81-31.624 14.523-46.422 23.52-13.269 8.055-26.205 16.875-37.662 27.44-10.995 10.093-20.697 21.98-26.597 35.799a79.652 79.652 0 0 0-6.037 23.216 103.902 103.902 0 0 0 1.421 28.557 253.255 253.255 0 0 0 7.096 28.263c1.43 4.773 2.94 9.526 4.331 14.289 1.392 4.762 2.999 9.378 3.724 14.21 1.157 7.604-1.666 13.994-6.86 19.423-4.733 4.959-10.398 8.908-15.405 13.573a48.437 48.437 0 0 0-6.606 7.389 1.835 1.835 0 0 0 0 1.833 6.656 6.656 0 0 0 8.948 2.94c2.107-.98.264-4.165-1.833-3.146a3.017 3.017 0 0 1-3.969-1.607v1.833c7.703-10.78 21.717-16.298 27.44-28.616a23.302 23.302 0 0 0 2.186-10.947c-.236-4.9-1.696-9.624-3.058-14.288-2.754-9.369-5.762-18.62-8.33-28.068-4.9-18.11-8.32-37.24-3.714-55.781 3.577-14.396 11.495-27.195 21.462-38.044 10.427-11.329 22.785-20.707 35.623-29.086A331.94 331.94 0 0 1 292.04 18.18c15.592-7.095 33.399-12.74 50.676-9.613a52.844 52.844 0 0 1 22.491 9.996c6.448 4.85 11.946 10.897 17.209 16.983 10.839 12.564 21.315 26.068 36.711 33.32 7.369 3.47 15.435 5.184 23.52 3.92 8.085-1.264 15.346-5.88 23.098-8.604a27.577 27.577 0 0 1 11.496-1.735l-1.755-2.313c-1.372 5.086-5.076 9.104-8.663 12.926a306.812 306.812 0 0 1-11.24 11.339c-7.723 7.399-15.818 14.426-24.177 21.109a541.802 541.802 0 0 1-53.155 36.995c-18.336 11.368-37.093 22.021-55.86 32.654l-64.435 36.485-64.729 36.652-7.84 4.449c-2.039 1.157-.206 4.312 1.832 3.146l-.019-.019z"/><path fill="#F2EFE6" d="M447.625 241.022c.157-3.194-1.313-5.272-5.508-5.096a11.987 11.987 0 0 0-4.331 1.314c-16.66 7.467-33.232 14.925-49.794 22.54-3.812 1.734-8.271 4.449-8.036 8.633.235 4.185 4.743 6.292 8.653 7.409 23.883 6.782 57.585-6.546 59.016-34.8z"/><path fill="#000" d="M449.448 241.023c.088-2.421-.726-4.9-2.94-6.076-3.058-1.627-6.478-.677-9.428.637-7.566 3.371-15.102 6.791-22.658 10.192-7.555 3.4-15.258 6.86-22.883 10.378-5.037 2.303-13.553 5.174-13.377 12.064.157 6.115 7.007 8.682 12.005 9.849a51.095 51.095 0 0 0 14.798 1.205 54.456 54.456 0 0 0 28.293-9.682c8.134-5.88 14.2-14.387 15.778-24.412.216-1.372.363-2.764.441-4.155.127-2.343-3.518-2.343-3.646 0a33.163 33.163 0 0 1-11.583 23.137c-6.684 5.88-15.269 9.399-23.981 10.859a51.554 51.554 0 0 1-13.112.509c-4.342-.382-9.428-1.166-13.064-3.724-1.705-1.195-2.94-3.155-2.009-5.233.98-2.342 3.754-3.763 5.88-4.812 6.586-3.204 13.338-6.105 20.012-9.123a6054.05 6054.05 0 0 1 23.128-10.418l5.782-2.607c1.637-.735 3.371-1.734 5.194-1.871a4.168 4.168 0 0 1 3.018.676 3.37 3.37 0 0 1 .667 2.607c-.039 2.342 3.557 2.342 3.685 0z"/><path fill="#000" d="M439.981 258.28a8.35 8.35 0 0 0-11.241-11.427 10.342 10.342 0 0 0-3.597 3.323 13.626 13.626 0 0 0-2.352 8.82 9.35 9.35 0 0 0 1.843 5.056 5.8 5.8 0 0 0 4.733 2.264 8.236 8.236 0 0 0 4.596-2.283 28.246 28.246 0 0 0 5.88-6.997"/><path fill="#000" d="M441.549 259.172a10.163 10.163 0 0 0-14.102-13.632c-4.126 2.48-6.439 7.497-6.488 12.201-.049 4.704 2.685 10.437 8.134 10.437 2.832 0 5.194-1.862 7.164-3.704a30.477 30.477 0 0 0 5.194-6.488c1.215-2.009-1.96-3.851-3.146-1.832a26.392 26.392 0 0 1-3.244 4.351 15.86 15.86 0 0 1-4.282 3.587c-3.46 1.725-5.88-2.048-6.135-5.067a11.584 11.584 0 0 1 3.42-9.408 6.744 6.744 0 0 1 8.095-.843 6.635 6.635 0 0 1 2.244 8.585c-1.088 2.078 2.058 3.92 3.146 1.843v-.03z"/><path fill="#F2EFE6" d="M544.948 195.707c.157-3.185-1.313-5.262-5.507-5.096a12.039 12.039 0 0 0-4.332 1.323c-16.611 7.468-33.232 14.926-49.794 22.54-3.812 1.735-8.271 4.44-8.036 8.634.236 4.048 4.744 6.292 8.654 7.409 23.882 6.782 57.585-6.537 59.015-34.81z"/><path fill="#000" d="M546.771 195.707c.088-2.411-.725-4.9-2.94-6.076-3.057-1.617-6.478-.666-9.427.647-7.566 3.361-15.102 6.781-22.658 10.192-7.556 3.41-15.259 6.86-22.883 10.368-5.037 2.303-13.553 5.175-13.377 12.074.157 6.115 7.007 8.683 12.005 9.8a51.446 51.446 0 0 0 14.798 1.195 54.344 54.344 0 0 0 28.293-9.672c8.134-5.88 14.2-14.387 15.778-24.412a42.63 42.63 0 0 0 .441-4.165c.127-2.342-3.518-2.332-3.646 0a33.176 33.176 0 0 1-11.554 23.148c-6.684 5.88-15.269 9.388-23.981 10.858a52.014 52.014 0 0 1-13.112.51c-4.342-.383-9.428-1.167-13.064-3.724-1.705-1.196-2.94-3.156-1.96-5.243.98-2.333 3.754-3.754 5.88-4.812 6.586-3.195 13.338-6.096 20.012-9.114a7161.642 7161.642 0 0 1 23.128-10.427l5.782-2.597c1.637-.735 3.371-1.735 5.194-1.872a4.168 4.168 0 0 1 3.018.676c.575.735.817 1.676.667 2.597-.118 2.401 3.518 2.391 3.606.049z"/><path fill="#000" d="M537.304 212.945a8.35 8.35 0 0 0-11.211-11.397c-1.449.8-2.683 1.94-3.596 3.322a13.607 13.607 0 0 0-2.352 8.82 9.283 9.283 0 0 0 1.842 5.047 5.784 5.784 0 0 0 4.753 2.303 8.309 8.309 0 0 0 4.596-2.284 27.972 27.972 0 0 0 5.88-6.997"/><path fill="#000" d="M538.873 213.857a10.164 10.164 0 0 0-14.093-13.652c-4.126 2.48-6.438 7.497-6.487 12.201-.049 4.704 2.675 10.437 8.134 10.437 2.832 0 5.194-1.862 7.163-3.704a30.415 30.415 0 0 0 5.194-6.488c1.216-2.018-1.96-3.851-3.145-1.842a26.122 26.122 0 0 1-3.244 4.361 15.81 15.81 0 0 1-4.283 3.577c-3.459 1.725-5.88-2.038-6.135-5.057a11.614 11.614 0 0 1 3.421-9.418 6.732 6.732 0 0 1 8.094-.833 6.634 6.634 0 0 1 2.245 8.585c-1.088 2.068 2.058 3.92 3.145 1.833h-.009z"/><path fill="#F2EFE6" d="M474.8 169.629c.157-3.185-1.313-5.262-5.508-5.096a12.04 12.04 0 0 0-4.331 1.323c-16.611 7.468-33.232 14.926-49.794 22.54-3.812 1.735-8.271 4.44-8.036 8.624.235 4.185 4.743 6.302 8.653 7.419 23.873 6.801 57.575-6.556 59.016-34.81z"/><path fill="#000" d="M476.613 169.629c.088-2.41-.725-4.9-2.94-6.076-3.058-1.617-6.478-.666-9.428.647-7.565 3.362-15.101 6.782-22.657 10.192-7.556 3.411-15.259 6.86-22.883 10.369-5.037 2.303-13.554 5.174-13.377 12.073.157 6.106 7.007 8.683 12.005 9.8a51.443 51.443 0 0 0 14.798 1.196 54.35 54.35 0 0 0 28.292-9.673c8.134-5.88 14.201-14.386 15.778-24.412.216-1.381.363-2.763.441-4.165.128-2.342-3.518-2.332-3.645 0a33.174 33.174 0 0 1-11.554 23.148c-6.684 5.88-15.269 9.388-23.981 10.858a52.018 52.018 0 0 1-13.112.51c-4.342-.382-9.428-1.166-13.064-3.724-1.705-1.196-2.94-3.156-2.009-5.243.98-2.332 3.754-3.753 5.88-4.812 6.586-3.195 13.338-6.095 20.012-9.114a7386.42 7386.42 0 0 1 23.128-10.427l5.782-2.597c1.636-.735 3.371-1.735 5.194-1.872a4.178 4.178 0 0 1 3.018.676c.575.735.817 1.677.667 2.597-.069 2.401 3.567 2.392 3.655.049z"/><path fill="#000" d="M467.146 186.858a8.34 8.34 0 0 0-11.211-11.388 10.258 10.258 0 0 0-3.597 3.322 13.62 13.62 0 0 0-2.352 8.82 9.29 9.29 0 0 0 1.843 5.047 5.78 5.78 0 0 0 4.733 2.274 8.304 8.304 0 0 0 4.596-2.283 28.233 28.233 0 0 0 5.88-6.998"/><path fill="#000" d="M468.714 187.779a10.162 10.162 0 0 0-14.102-13.651c-4.126 2.479-6.438 7.497-6.487 12.201-.049 4.704 2.685 10.427 8.134 10.437 2.832 0 5.194-1.862 7.163-3.705a30.434 30.434 0 0 0 5.194-6.487c1.216-2.019-1.96-3.852-3.145-1.843a26.47 26.47 0 0 1-3.244 4.361 15.81 15.81 0 0 1-4.283 3.577c-3.459 1.725-5.88-2.038-6.135-5.057a11.612 11.612 0 0 1 3.421-9.417 6.72 6.72 0 0 1 8.094-.833 6.633 6.633 0 0 1 2.245 8.584c-1.088 2.068 2.058 3.92 3.145 1.833z"/><path fill="#F2EFE6" d="M342.235 303.84a1.823 1.823 0 1 0 0-3.645 1.823 1.823 0 0 0 0 3.645zm14.965-7.232a1.823 1.823 0 1 0 0-3.646 1.823 1.823 0 0 0 0 3.646zm-3.215 14.916a1.823 1.823 0 1 0 0-3.647 1.823 1.823 0 0 0 0 3.647zm23.05-3.166a1.823 1.823 0 1 0 0-3.646 1.823 1.823 0 0 0 0 3.646zm92.65-208.201a56.44 56.44 0 0 1 35.064 14.808 51.788 51.788 0 0 1 6.409 7.017c.755.98 2.078 2.714 1.519 4.096-.323.784-1.166 1.304-1.352.255-.422-2.372 2.567-3.92 4.459-4.116a7.576 7.576 0 0 1 7.007 3.214 12.028 12.028 0 0 1 2.097 9.203c-.568 2.793-2.136 5.517-5.106 6.134l2.313 1.755c0-2.686.245-6.018 2.44-7.909a4.284 4.284 0 0 1 3.156-1.147 3.922 3.922 0 0 1 2.607 1.96 85.306 85.306 0 0 1 9.261 17.827c.842 2.156 4.37 1.215 3.518-.98a100.704 100.704 0 0 0-5.292-11.496 85.205 85.205 0 0 0-3.195-5.449 15.002 15.002 0 0 0-3.499-4.331c-2.94-2.097-6.801-1.196-9.261 1.137-2.793 2.636-3.312 6.732-3.381 10.368a1.843 1.843 0 0 0 2.303 1.764c3.675-.764 6.145-3.832 7.272-7.262a15.68 15.68 0 0 0-.813-11.211 12.007 12.007 0 0 0-8.703-7.125 9.877 9.877 0 0 0-9.672 3.656c-1.96 2.822-1.402 8.3 2.94 8.251a4.996 4.996 0 0 0 4.419-3.596c.677-2.156-.235-4.44-1.44-6.213-4.577-6.743-11.28-12.339-18.297-16.366a60.022 60.022 0 0 0-26.783-7.909c-2.342-.118-2.333 3.528 0 3.646l.01.019zm89.513 73.961h1.352c.245.006.487-.048.706-.157.222-.075.421-.207.578-.382.173-.162.304-.364.382-.588.111-.215.165-.454.157-.696l-.069-.49a1.868 1.868 0 0 0-.47-.804l-.363-.284a1.802 1.802 0 0 0-.921-.245h-1.352a1.872 1.872 0 0 0-1.823 1.823l.059.48c.084.305.246.582.47.804l.373.284c.28.163.597.251.921.255zm14.455 8.134a1.823 1.823 0 1 0 0-3.646 1.823 1.823 0 0 0 0 3.646zm-10.389 9.486h.451c.242.013.483-.042.696-.157.225-.07.428-.198.588-.372.173-.162.305-.364.382-.588a1.43 1.43 0 0 0 .157-.706l-.069-.48a1.79 1.79 0 0 0-.47-.803l-.363-.285a1.956 1.956 0 0 0-.921-.254h-.451a1.536 1.536 0 0 0-.705.156 1.458 1.458 0 0 0-.588.383 1.338 1.338 0 0 0-.373.588 1.323 1.323 0 0 0-.156.695l.058.49c.087.304.249.58.471.804l.372.284c.279.164.598.249.921.245zm19.434 7.683a1.823 1.823 0 0 0 0-3.635 1.823 1.823 0 0 0 0 3.635zM192.962 266.12a117.852 117.852 0 0 0 1.96 57.546 115.316 115.316 0 0 0 4.9 13.602c1.568 3.636 3.92 7.605 8.183 8.33 3.508.598 8.065-1.441 7.624-5.606-.353-3.322-4.978-7.114-7.742-3.694-2.558 3.185-3.655 7.84-3.547 11.828a19.017 19.017 0 0 0 4.243 11.555c4.675 5.762 14.573 9.8 21.364 5.38 2.881-1.862 5.488-5.459 3.685-8.948-1.803-3.488-6.703-3.831-9.702-1.636-3.509 2.558-4.342 7.33-4.557 11.397a32.34 32.34 0 0 0 8.82 23.648c3.273 3.4 7.183 6.017 9.702 10.084 2.685 4.322 4.802 9.045 7.115 13.563l7.271 14.22 3.636 7.115c1.068 2.087 4.214.245 3.146-1.843l-12.456-24.343a116.483 116.483 0 0 0-6.027-11.28c-2.254-3.4-5.341-5.88-8.291-8.614a28.751 28.751 0 0 1-9.241-19.081c-.216-3.292-.147-7.252 1.529-10.192a4.517 4.517 0 0 1 3.175-2.42 2.382 2.382 0 0 1 2.754 1.293c.813 2.392-3.009 4.499-4.783 4.959-2.94.774-6.566-.166-9.222-1.538a15.594 15.594 0 0 1-8.261-16.925 16.19 16.19 0 0 1 1.764-4.802c.186-.323.392-.637.588-.98.461-.774 0-.098.059-.088.364.121.684.346.921.647a1.483 1.483 0 0 1-.176 2.205 3.834 3.834 0 0 1-3.479.313c-3.176-1.127-4.557-5.351-5.704-8.173a113.865 113.865 0 0 1-6.86-60.544c.323-2.019.715-4.028 1.147-6.027.499-2.284-3.009-3.264-3.509-.98l-.029.029zm70.158 187.67a82.637 82.637 0 0 1 12.946-13.857 1.823 1.823 0 0 0-2.578-2.577 86.75 86.75 0 0 0-13.514 14.592 1.833 1.833 0 0 0 .657 2.499 1.862 1.862 0 0 0 2.489-.657zm2.773 16.641 18.366-19.267c1.617-1.695-.98-4.273-2.578-2.577l-18.365 19.266c-1.617 1.696.98 4.283 2.577 2.578zm7.096 12.191 21.638-21.08c1.676-1.636-.902-4.214-2.577-2.577l-21.639 21.08c-1.676 1.636.902 4.214 2.578 2.577z"/><path fill="#F2EFE6" d="M263.679 446.313a141.471 141.471 0 0 1 25.058 23.098c1.529 1.794 4.097-.793 2.578-2.577a145.672 145.672 0 0 0-25.794-23.677c-1.911-1.362-3.734 1.794-1.842 3.156zm9.702-13.406 28.939 26.989c1.715 1.597 4.293-.98 2.578-2.578l-28.94-26.989c-1.715-1.597-4.292.98-2.577 2.578zm24.362-11.026 6.096 2.049a1.823 1.823 0 0 0 2.244-1.274 1.862 1.862 0 0 0-1.274-2.235l-6.096-2.048a1.833 1.833 0 0 0-2.244 1.274c-.24.965.321 1.95 1.274 2.234zm23.814 23.658a1.823 1.823 0 1 0 0-3.646 1.823 1.823 0 0 0 0 3.646z"/><path fill="#3EF194" d="M485.904 485.356a29.587 29.587 0 0 0 15.209-15.788c3.058-7.467 2.999-16.14 7.683-22.941a21.563 21.563 0 0 1 9.614-7.684 1.881 1.881 0 0 0 1.274-2.244 1.833 1.833 0 0 0-2.244-1.274 26.34 26.34 0 0 0-15.288 16.729c-2.489 7.634-2.891 15.974-8.144 22.452a26.764 26.764 0 0 1-9.937 7.604 1.824 1.824 0 0 0-.657 2.49 1.873 1.873 0 0 0 2.49.656zm43.776-48.49.343-.334a2.06 2.06 0 0 0 .53-1.293 1.327 1.327 0 0 0-.157-.696 1.35 1.35 0 0 0-.373-.588l-.372-.284a1.876 1.876 0 0 0-.921-.255l-.48.069a1.798 1.798 0 0 0-.804.47l-.343.343a1.245 1.245 0 0 0-.372.578c-.21.447-.21.964 0 1.411.067.224.196.424.372.579l.372.294c.281.159.598.244.922.245l.48-.069c.306-.08.584-.242.803-.47zm5.439-1.157a1.823 1.823 0 1 0 0-3.646 1.823 1.823 0 0 0 0 3.646zm12.554-.833c5.939.696 12.171 1.353 17.904-.794a17.212 17.212 0 0 0 6.606-4.145c1.607-1.715 2.43-4.635.068-6.105a1.84 1.84 0 0 0-2.205.284c-2.205 2.303-.5 5.997 2.411 6.615 3.459.725 6.86-2.421 9.085-4.645a31.167 31.167 0 0 0 8.869-17.15 1.873 1.873 0 0 0-1.274-2.235 1.834 1.834 0 0 0-2.245 1.264 27.986 27.986 0 0 1-5.439 12.74 26.928 26.928 0 0 1-4.772 4.793c-.853.676-2.127 1.773-3.293 1.666a.873.873 0 0 1-.588-.324c-.333-.264 0-.362-.157-.186l-2.215.284c-1.058-.666.206-.666-.441-.108-.274.236-.499.637-.774.902a12.876 12.876 0 0 1-2.068 1.568 17.624 17.624 0 0 1-5.497 2.097c-4.577.98-9.369.333-13.956-.206a1.842 1.842 0 0 0-1.822 1.823 1.871 1.871 0 0 0 1.822 1.823l-.019.039zm23.04-430.553c6.86.059 13.24 3.381 18.051 8.183 5.341 5.331 8.497 12.29 10.212 19.6a92.126 92.126 0 0 1 1.96 24.108c-.245 7.615-1.617 15.866-6.733 21.854a20.734 20.734 0 0 1-7.967 5.88 15.43 15.43 0 0 1-4.9 1.078c-1.48.059-3.45.098-4.606-.98-2.048-1.891.265-5.508 1.617-7.095 2.323-2.734 5.625-4.812 8.683-6.615a51.234 51.234 0 0 1 10.682-4.734c3.802-1.185 8.144-2.381 12.152-1.832 7.458.98 10.927 8.957 11.064 15.68a49.334 49.334 0 0 1-1.774 12.74 94.929 94.929 0 0 1-14.7 32.34 95.786 95.786 0 0 1-3.508 4.684 1.872 1.872 0 0 0 0 2.578 1.842 1.842 0 0 0 2.577 0 99.966 99.966 0 0 0 13.72-22.668c3.597-8.3 6.537-17.365 7.223-26.46.607-8.006-1.96-17.385-9.741-21.158-4.244-2.048-8.928-1.588-13.407-.627a55.249 55.249 0 0 0-23.245 11.3c-2.833 2.332-5.322 5.605-5.694 9.358-.412 4.116 2.832 6.615 6.605 7.037a18.953 18.953 0 0 0 11.28-2.539c7.369-4.165 11.642-11.877 13.269-19.982a66.79 66.79 0 0 0 1.127-13.573c.01-4.52-.255-9.036-.794-13.524-1.078-8.624-3.449-17.375-8.643-24.5-4.587-6.272-11.143-11.417-18.826-13.161a27.042 27.042 0 0 0-5.684-.657c-2.342 0-2.342 3.626 0 3.646v.039zM637.598 174a534.058 534.058 0 0 0 58.261-63.2 568.153 568.153 0 0 0 14.426-19.296c1.362-1.96-1.794-3.734-3.146-1.842a531.697 531.697 0 0 1-54.802 65.042 537.015 537.015 0 0 1-17.316 16.729c-1.725 1.587.862 4.165 2.577 2.567zm34.76 23.206a160.204 160.204 0 0 0 30.782-21.736c1.754-1.568-.833-4.136-2.567-2.577a156.533 156.533 0 0 1-30.086 21.168c-2.068 1.107-.226 4.263 1.842 3.145h.029zM70.942 86.34c-15.445 18.962-22.755 43.982-20.58 68.305a92.952 92.952 0 0 0 3.293 17.787c1.695 5.88 3.92 11.927 7.173 17.101a23.883 23.883 0 0 0 6.155 6.733 18.337 18.337 0 0 0 9.026 3.185c6.32.598 12.857-1.47 18.453-4.283a48.578 48.578 0 0 0 22.883-24.902 41.83 41.83 0 0 0 2.519-8.535c.529-3.038.607-6.39-1.529-8.82a8.25 8.25 0 0 0-7.575-2.382 12.821 12.821 0 0 0-7.488 4.626 73.217 73.217 0 0 0-5.772 8.065 116.299 116.299 0 0 0-5.507 9.163 85.625 85.625 0 0 0-7.674 18.846c-3.136 11.916-2.754 24.568 2.362 35.877a39.424 39.424 0 0 0 9.947 13.534c4.841 4.155 11.25 7.762 17.787 5.763 5.949-1.813 10.457-7.037 12.887-12.584a29.978 29.978 0 0 0 1.96-17.64 27.852 27.852 0 0 0-3.058-8.349 1.84 1.84 0 0 0-3.145 0 36.933 36.933 0 0 0-1.127 36.26c1.107 2.068 4.253.225 3.145-1.843a33.202 33.202 0 0 1 1.127-32.604h-3.145c5.233 9.378 3.831 22.393-4.136 29.86a13.45 13.45 0 0 1-7.144 3.734c-3.195.441-6.272-.872-8.928-2.518a33.318 33.318 0 0 1-10.574-10.859c-5.596-9.075-7.419-20.237-5.88-30.723 1.783-12.456 7.506-23.931 14.367-34.3a59.97 59.97 0 0 1 5.37-7.438c1.686-1.872 3.802-3.499 6.439-3.401 6.164.226 3.635 8.35 2.499 11.956a44.721 44.721 0 0 1-19.013 24.157 37.537 37.537 0 0 1-15.317 5.635c-3.018.414-6.09.077-8.947-.98a15.824 15.824 0 0 1-6.331-4.988c-3.371-4.253-5.44-9.653-7.154-14.749a87.325 87.325 0 0 1-3.842-16.405 92.924 92.924 0 0 1 14.22-63.132 84.543 84.543 0 0 1 4.831-6.575 1.882 1.882 0 0 0 0-2.578 1.833 1.833 0 0 0-2.577 0zM23.843 237.984a197.602 197.602 0 0 0 34.526 28.959 200.576 200.576 0 0 0 40.18 20.472 195.314 195.314 0 0 0 24.264 7.341c2.284.529 3.254-2.94.98-3.519a193.61 193.61 0 0 1-41.748-14.915 194.307 194.307 0 0 1-55.605-40.915c-1.617-1.705-4.194.872-2.577 2.577h-.02zM1.725 319.383a258.735 258.735 0 0 0 45.139 12.28c4.42.784 8.82 1.44 13.318 1.96a1.843 1.843 0 0 0 1.823-1.823 1.862 1.862 0 0 0-1.823-1.823 257.575 257.575 0 0 1-57.487-14.151c-2.205-.814-3.156 2.705-.98 3.518l.01.039z"/><path fill="#000" d="M125.724 393.334a1.823 1.823 0 1 0 0-3.646 1.823 1.823 0 0 0 0 3.646zm-9.673 51.146a55.876 55.876 0 0 1 15.945-19.6 1.832 1.832 0 0 0 0-2.577 1.86 1.86 0 0 0-2.577 0 58.321 58.321 0 0 0-16.513 20.266c-1.029 2.097 2.107 3.92 3.145 1.842v.069z"/><path fill="#3EF194" d="M200.087 158.496c23.079-16.601 45.08-34.652 68.727-50.489a381.28 381.28 0 0 1 37.426-22.03c13.348-6.86 26.921-13.348 40.425-19.924l46.619-22.697c2.107-.98.264-4.175-1.843-3.146l-41.307 20.11c-13.514 6.625-27.185 13.132-40.65 19.923a398.537 398.537 0 0 0-37.975 21.619c-11.907 7.762-23.383 16.141-34.731 24.677-12.828 9.623-25.48 19.443-38.524 28.812-1.891 1.352-.078 4.517 1.833 3.145zm7.173 41.053c9.418-11.603 21.305-20.786 33.487-29.322 13.494-9.447 27.214-18.62 40.954-27.675a5011.259 5011.259 0 0 1 41.944-27.44c13.299-8.614 26.529-17.366 40.18-25.411 13.367-7.84 27.205-15.083 41.777-20.473 1.817-.653 3.64-1.306 5.469-1.96 2.215-.735 1.264-4.263-.98-3.508a243.055 243.055 0 0 0-42.513 19.522c-13.778 7.84-27.038 16.503-40.327 25.117a6126.352 6126.352 0 0 0-42.385 27.646c-14.004 9.222-27.949 18.532-41.748 28.047-12.377 8.526-24.725 17.425-34.848 28.616a98.684 98.684 0 0 0-3.607 4.224 1.863 1.863 0 0 0 0 2.568 1.825 1.825 0 0 0 2.578 0l.019.049zm7.056-83.741a1.823 1.823 0 1 0 0-3.646 1.823 1.823 0 0 0 0 3.646zm9.036-9.496a1.823 1.823 0 1 0-.001-3.645 1.823 1.823 0 0 0 .001 3.645zm-.412 11.299a1.823 1.823 0 1 0 0-3.646 1.823 1.823 0 0 0 0 3.646zm69.58-88.043a77.05 77.05 0 0 1 24.265-8.654 57.094 57.094 0 0 1 13.485-.98c4.577.294 8.751 2.029 12.809 4.048a125.789 125.789 0 0 1 13.357 7.732c1.96 1.303 3.783-1.852 1.833-3.146a124.96 124.96 0 0 0-12.319-7.213c-4.302-2.195-8.732-4.224-13.563-4.9a52.592 52.592 0 0 0-14.191.53 77.778 77.778 0 0 0-13.288 3.155 80.83 80.83 0 0 0-14.269 6.292c-2.048 1.146-.216 4.302 1.832 3.146l.049-.01z"/><path fill="#3EF194" d="M306.564 36.947a37.54 37.54 0 0 1 8.026-4.067 24.61 24.61 0 0 1 9.359-1.107c2.806.13 5.599.457 8.359.98 2.225.45 4.704 1.185 6.155 3.067a1.881 1.881 0 0 0 2.489.647 1.832 1.832 0 0 0 .656-2.49c-3.861-5.017-10.868-5.38-16.748-5.81a28.22 28.22 0 0 0-10.78 1.038 40.729 40.729 0 0 0-9.31 4.587c-1.96 1.264-.147 4.42 1.843 3.155h-.049zm14.876 6.537h.901a1.871 1.871 0 0 0 1.823-1.784l-.059-.48a1.8 1.8 0 0 0-.47-.804l-.372-.284a1.787 1.787 0 0 0-.922-.255h-.901a1.462 1.462 0 0 0-.706.157c-.45.174-.806.53-.98.98a1.327 1.327 0 0 0-.157.696l.069.49c.09.302.251.577.47.803l.363.285c.279.164.598.248.921.245l.02-.05z"/><path fill="#3EF194" d="M312.385 14.544a83.037 83.037 0 0 1-3.528 20.766c-.686 2.245 2.832 3.205 3.508.98a87.518 87.518 0 0 0 3.675-21.746c.098-2.342-3.547-2.342-3.645 0h-.01zm17.081-3.586a197.021 197.021 0 0 1-6.321 23.392c-.744 2.225 2.774 3.185 3.519.98a201.184 201.184 0 0 0 6.321-23.392c.47-2.294-3.038-3.274-3.519-.98zm11.878 3.086a220.979 220.979 0 0 0-7.154 28.048c-.422 2.293 3.087 3.273 3.518.98a221.128 221.128 0 0 1 7.144-28.048c.725-2.234-2.783-3.194-3.508-.98zm12.191 4.577a1.823 1.823 0 0 0 0-3.636 1.823 1.823 0 0 0 0 3.636zm-5.88 25.314a1.823 1.823 0 1 0 0-3.646 1.823 1.823 0 0 0 0 3.646zm21.246-8.115a1.823 1.823 0 1 0 0-3.646 1.823 1.823 0 0 0 0 3.646zm65.651 824.719c-7.203 1.264-13.906 5.88-16.445 12.877-2.499 6.86-.264 15.151 6.4 18.738a13.369 13.369 0 0 0 9.917 1.264c1.637-.47 3.44-1.333 4.038-3.058.598-1.724-.245-3.743-1.49-5.105-2.205-2.411-5.654-3.058-8.771-2.548a12.35 12.35 0 0 0-8.036 5.35c-2.361 3.372-3.39 7.703-3.822 11.76-.362 3.43.432 7.419 4.058 8.683 2.214.765 3.175-2.754.98-3.518-1.784-.617-1.549-3.744-1.382-5.165a24.306 24.306 0 0 1 2.097-7.84 10.015 10.015 0 0 1 5.096-5.262 7.191 7.191 0 0 1 6.076.157c.598.352 1.833 1.254 1.774 2.058-.059.803-2.117 1.117-2.744 1.205a10.233 10.233 0 0 1-6.86-1.676c-4.626-2.989-5.625-8.977-3.92-13.926 2.068-5.948 8.026-9.466 13.965-10.505 2.303-.412 1.323-3.92-.98-3.518l.049.029zm278.329-58.359a31.862 31.862 0 0 0-13.19 15.112c-2.695 6.399-3.862 14.916.901 20.658a10.69 10.69 0 0 0 8.761 3.989c3.401-.294 6.106-2.362 8.144-4.988 1.803-2.333 4.077-5.557 3.646-8.673-.549-3.852-5.184-4.273-7.958-2.519-3.077 1.96-4.537 5.665-5.155 9.095a30.937 30.937 0 0 0 .745 14.043c.657 2.254 4.175 1.294 3.518-.98a27.566 27.566 0 0 1-1.029-9.878 15.847 15.847 0 0 1 2.176-7.497 5.102 5.102 0 0 1 2.185-1.96c.667-.275 1.794-.51 1.96.392.167.901-.637 2.156-1.078 2.94a21.348 21.348 0 0 1-2.156 3.214c-1.479 1.764-3.43 3.293-5.88 3.205a7.635 7.635 0 0 1-5.948-3.92c-2.774-4.724-1.46-11.182.588-15.935a28.27 28.27 0 0 1 11.613-13.152 1.823 1.823 0 0 0-1.843-3.146zm-53.645 100.94c9.977-10.78 22.168-19.208 35.28-25.872 13.309-6.782 27.44-11.819 41.601-16.376a536.879 536.879 0 0 1 12.064-3.773c4.508-1.382 9.095-3.067 13.877-2.861 2.342.098 2.342-3.548 0-3.646-4.469-.186-8.751 1.127-12.975 2.421-3.636 1.117-7.282 2.234-10.917 3.381-7.311 2.312-14.583 4.733-21.766 7.418-14.112 5.282-27.979 11.594-40.425 20.159a114.767 114.767 0 0 0-19.277 16.572c-1.587 1.724.98 4.312 2.578 2.577h-.04z"/><path fill="#F2EFE6" d="M718.556 385.406c-8.085.549-15.68 6.703-17.131 14.837-.401 2.264-.058 4.782 2.107 6.037a3.413 3.413 0 0 0 5.028-1.774 3.03 3.03 0 0 0-2.744-4.077c-2.195 0-4.057 2.127-5.351 3.675a21.846 21.846 0 0 0-5.067 13.857c0 2.343 3.636 2.343 3.646 0a18.162 18.162 0 0 1 3.244-10.27 16.221 16.221 0 0 1 1.646-1.96c.265-.284.539-.549.823-.813.285-.265.98-.628 1.029-.794-.519-.118-.744-.373-.666-.774l.225-.167c.059-.059 0-.098-.137-.127-.137-.03-.274-.451-.313-.677a4.093 4.093 0 0 1 .117-1.538 15.22 15.22 0 0 1 13.534-11.76c2.323-.157 2.342-3.803 0-3.646l.01-.029zm-18.003 43.865a1.823 1.823 0 1 0 0-3.646 1.823 1.823 0 0 0 0 3.646zm7.625-7.713 1.038 1.362c.108.212.271.391.471.519.176.157.388.268.617.324.237.068.489.068.725 0 .242-.007.476-.082.677-.216l.372-.284c.225-.222.387-.499.47-.804l.059-.48a1.773 1.773 0 0 0-.245-.921l-1.039-1.343a1.384 1.384 0 0 0-.47-.509 1.36 1.36 0 0 0-.617-.333 1.511 1.511 0 0 0-.726 0 1.38 1.38 0 0 0-.676.215l-.372.284a1.88 1.88 0 0 0-.471.804l-.058.49c-.003.323.082.642.245.921v-.029zm2.214 11.436a1.823 1.823 0 1 0 0-3.646 1.823 1.823 0 0 0 0 3.646zm17.248-24.069a1.823 1.823 0 1 0 0-3.645 1.823 1.823 0 0 0 0 3.645zm-4.821-190.394c1.499-3.096 3.185-6.115 6.409-7.653a33.556 33.556 0 0 1 5.321-1.774c.98-.265 1.96-.52 2.882-.696.433-.09.872-.155 1.313-.196l.911-.059c.363 0 .245-.117-.333-.382v-.98a12.925 12.925 0 0 1-1.382 3.92l2.499-.657.343.314.255.911c0 .343 1.039-.441 1.284-.568a35.726 35.726 0 0 1 2.117-1.039 30.335 30.335 0 0 1 4.41-1.509c2.254-.617 1.293-4.136-.98-3.518a35.176 35.176 0 0 0-7.586 3.018 5.609 5.609 0 0 0-2.577 2.205 2.489 2.489 0 0 0 .882 3.332 1.822 1.822 0 0 0 2.489-.656c1.098-2.078 3.371-6.674 0-7.84a9.164 9.164 0 0 0-4.4.127c-1.57.31-3.121.709-4.645 1.196-2.783.823-5.527 1.773-7.713 3.763a21.743 21.743 0 0 0-4.655 6.86c-.98 2.097 2.117 3.92 3.146 1.842l.01.039zm33.947-13.533.333-.343c.174-.163.305-.364.382-.588a1.646 1.646 0 0 0 0-1.402 1.445 1.445 0 0 0-.382-.588l-.362-.284a1.799 1.799 0 0 0-.922-.245l-.49.059c-.301.09-.577.251-.803.47l-.333.343c-.176.16-.307.363-.383.588a1.653 1.653 0 0 0 0 1.402c.078.224.209.425.383.588l.362.284c.28.163.598.247.921.245l.49-.069c.305-.078.583-.237.804-.46zm6.968-4.342v-.343a1.33 1.33 0 0 0-.157-.696 1.34 1.34 0 0 0-.373-.588 1.46 1.46 0 0 0-.588-.382 1.438 1.438 0 0 0-.676-.147l-.48.069c-.303.086-.58.248-.804.47l-.284.363a1.802 1.802 0 0 0-.245.921v.343c-.012.242.042.483.157.696.068.226.197.43.372.588.162.173.364.304.588.382.215.111.455.165.696.157l.49-.069c.304-.086.58-.248.804-.47l.284-.363c.163-.279.247-.598.245-.921l-.029-.01zm3.263-3.607a1.823 1.823 0 1 0 0-3.645 1.823 1.823 0 0 0 0 3.645zm1.98-24.029a17.49 17.49 0 0 1 .666 10.221 1.824 1.824 0 0 0 3.508.98 20.975 20.975 0 0 0-.666-12.152 1.863 1.863 0 0 0-2.234-1.274 1.843 1.843 0 0 0-1.274 2.245v-.02zm-8.918 38.024 12.397 28.537a1.841 1.841 0 0 0 2.499.657 1.872 1.872 0 0 0 .647-2.499l-12.397-28.538a1.833 1.833 0 0 0-2.499-.646 1.862 1.862 0 0 0-.647 2.489zm9.457-13.887 14.513 29.185c1.039 2.097 4.185.255 3.146-1.843l-14.514-29.184c-1.038-2.097-4.184-.255-3.145 1.842zm11.789-6.399.98.98c.162.17.364.298.588.372.213.115.454.169.696.157.245.014.489-.041.706-.157.223-.074.425-.202.588-.372l.284-.373c.164-.279.249-.597.245-.921l-.059-.48a1.812 1.812 0 0 0-.47-.804l-.98-.98a1.473 1.473 0 0 0-.588-.382 1.646 1.646 0 0 0-1.402 0 1.466 1.466 0 0 0-.588.382l-.284.363a1.795 1.795 0 0 0-.245.921l.059.49c.086.304.248.58.47.804zm43.61 129.115 11.192 17.209 5.468 8.398c.911 1.402 1.852 2.793 2.744 4.214.157.265 1.294 2.362.696 2.392l1.293.539c.451.499-.117.303.285.235.401-.069 0-.373.578 0a5.006 5.006 0 0 1 1.656 2.107c.539.98 1.392 2.381 1.205 3.567-.186 1.186-1.234 1.891-1.577 2.94a7.052 7.052 0 0 0 .117 3.822c.333 1.509.686 3.009 1.029 4.508l2.058 9.016c.52 2.283 4.038 1.313 3.518-.98l-2.175-9.486c-.353-1.559-.794-3.107-1.059-4.675-.235-1.333.647-1.96 1.196-3.038 1.333-2.685-.098-5.762-1.499-8.114-1.176-1.96-3.313-4.018-5.822-3.264-2.116.637-3.861 3.166-2.616 5.292 1.636 2.793 4.998.284 5.498-1.96.617-2.822-1.755-5.478-3.176-7.654l-5.468-8.398-11.995-18.483c-1.274-1.96-4.43-.127-3.146 1.842v-.029zm30.566 72.442a1.823 1.823 0 1 0 0-3.647 1.823 1.823 0 0 0 0 3.647zm.333 7.085a1.823 1.823 0 1 0 0-3.646 1.823 1.823 0 0 0 0 3.646zm0 9.192a1.823 1.823 0 1 0 0-3.645 1.823 1.823 0 0 0 0 3.645zm-4.537 10.555a41.349 41.349 0 0 1-1.284 4.959 36.5 36.5 0 0 1-.882 2.401l-.205.51c.117-.275-.157.343-.177.401-.176.392-.353.775-.539 1.167a1.821 1.821 0 1 0 3.146 1.832 42.315 42.315 0 0 0 3.459-10.3 1.826 1.826 0 1 0-3.518-.98v.01zm26.372-164.787a21.487 21.487 0 0 0-7.105 10.133 45.14 45.14 0 0 0-1.676 5.88c-.5 2.274-.98 4.655.265 6.792a1.823 1.823 0 0 0 3.145-1.843c-.784-1.352-.049-3.322.275-4.743a43.746 43.746 0 0 1 1.499-5.116 17.223 17.223 0 0 1 5.439-7.957 1.871 1.871 0 0 0 .647-2.489 1.832 1.832 0 0 0-2.489-.657zm19.963 15.239a20.401 20.401 0 0 0-10.604 17.16c-.078 2.352 3.567 2.352 3.646 0a16.735 16.735 0 0 1 8.82-14.014c2.067-1.108.235-4.254-1.843-3.146h-.019zm-51.137-34.957a14.368 14.368 0 0 1 16.18 6.625c1.156 2.048 4.302.216 3.146-1.833a18.072 18.072 0 0 0-20.286-8.31c-2.254.647-1.294 4.165.98 3.518h-.02zM175.214 416.305c.922 6.86-.715 13.544-3.273 19.884-1.293 3.195-2.832 6.282-4.41 9.34a46.05 46.05 0 0 1-2.224 4.106c-.608.98-1.441 2.068-2.656 2.126l1.754 2.313c.088-.323.069-.323-.049 0-.294.137-.284.157 0 .049.088.059.235 0 .333 0 .598.245.49 1.304.431 1.803a21.233 21.233 0 0 1-1.813 5.635 36.74 36.74 0 0 1-6.86 10.428c-1.597 1.715.98 4.292 2.578 2.577a40.228 40.228 0 0 0 9.143-15.798c.755-2.489 1.215-6.056-1.431-7.663-2.058-1.255-5.301-.637-5.88 1.96a1.835 1.835 0 0 0 1.755 2.303c3.479-.167 5.419-3.048 6.86-5.88 1.842-3.518 3.645-7.056 5.203-10.712 3.029-7.105 5.145-14.758 4.107-22.54a1.881 1.881 0 0 0-1.823-1.822 1.832 1.832 0 0 0-1.823 1.822l.078.069zm-30.556-49.676a25.772 25.772 0 0 1 4.978-5.282 8.639 8.639 0 0 1 3.038-1.431 5.663 5.663 0 0 1 3.077.049 1.823 1.823 0 1 0 .98-3.509 10.525 10.525 0 0 0-8.575 1.5 26.172 26.172 0 0 0-6.066 6.095 1.882 1.882 0 0 0 0 2.578 1.825 1.825 0 0 0 2.578 0h-.01zm-27.362-2.254a24.825 24.825 0 0 1 12.044-9.614 1.87 1.87 0 0 0 1.274-2.244 1.842 1.842 0 0 0-2.244-1.274 28.672 28.672 0 0 0-14.21 11.289 1.824 1.824 0 0 0 3.146 1.843h-.01zm-28.88 9.065c.217-.42.459-.825.725-1.216l.206-.284c-.206.245.127-.176 0 0l.46-.539c.308-.345.635-.672.98-.98l.265-.225c.069-.059.353-.255 0 0l.588-.412c.39-.259.796-.495 1.215-.705l.647-.304.333-.128c.445-.16.9-.291 1.362-.392.226-.058.46-.098.686-.137.226-.078.226-.039 0 0a2.12 2.12 0 0 1 .422 0 1.862 1.862 0 0 0 1.822-1.823 1.842 1.842 0 0 0-1.822-1.822 13.875 13.875 0 0 0-11.074 7.203 1.823 1.823 0 1 0 3.145 1.842l.04-.078zm50.146 153.203c-.578 11.182 1.833 22.266 5.773 32.674a152.491 152.491 0 0 0 6.86 15.307c2.469 4.9 5.037 9.8 7.938 14.357 2.783 4.42 6.517 8.634 12.044 9.026 1.666.127 2.283-2.019 1.293-3.107a7.047 7.047 0 0 0-5.88-2.283c-1.44.137-2.557 1.96-1.283 3.107a91.736 91.736 0 0 0 40.18 21.197 93.58 93.58 0 0 0 12.867 2.087c2.332.216 2.313-3.43 0-3.645a87.872 87.872 0 0 1-40.631-14.524 84.669 84.669 0 0 1-9.8-7.693l-1.293 3.107a3.643 3.643 0 0 1 3.292 1.225l1.284-3.107c-4.145-.294-6.977-4.145-8.996-7.379-2.695-4.322-5.106-8.879-7.438-13.416-4.793-9.32-8.918-19.081-11.094-29.4a68.115 68.115 0 0 1-1.421-17.552c.118-2.342-3.518-2.342-3.646 0l-.049.019zm91.571 93.6h.912c.241.003.479-.051.696-.157.224-.077.425-.209.588-.382.173-.16.302-.363.372-.588.115-.213.169-.454.157-.696l-.059-.49a1.858 1.858 0 0 0-.47-.803l-.373-.285a1.779 1.779 0 0 0-.911-.245h-.912a1.323 1.323 0 0 0-.695.157 1.338 1.338 0 0 0-.588.373 1.458 1.458 0 0 0-.383.588c-.111.218-.165.46-.156.705l.068.48a1.8 1.8 0 0 0 .471.804l.362.284c.281.16.598.247.921.255zm11.3 0a1.823 1.823 0 1 0-.001-3.645 1.823 1.823 0 0 0 .001 3.645zm12.211 1.352a1.822 1.822 0 1 0 0-3.645 1.822 1.822 0 0 0 0 3.645zm15.846-1.411a132.382 132.382 0 0 0 36.986-11.181c2.116-.98.274-4.136-1.843-3.146a129.273 129.273 0 0 1-36.113 10.78 1.832 1.832 0 0 0-1.264 2.244 1.861 1.861 0 0 0 2.234 1.274v.029zm50.176-17.189 1.353-.451c.23-.053.442-.164.617-.323.2-.125.363-.301.471-.51a2.09 2.09 0 0 0 .186-1.411l-.186-.431a1.803 1.803 0 0 0-.647-.657l-.441-.176c-.321-.09-.66-.09-.98 0l-1.353.451a1.25 1.25 0 0 0-.617.323 1.387 1.387 0 0 0-.47.51c-.134.2-.209.435-.216.676a1.296 1.296 0 0 0 0 .725l.186.441c.157.271.384.494.657.647l.431.186c.32.09.66.09.98 0h.029zm7.203-3.998a1.823 1.823 0 1 0 0-3.646 1.823 1.823 0 0 0 0 3.646z"/><path fill="#000" d="M670.947 328.448c-.382-4.949-5.88-6.791-10.103-5.88-4.224.912-8.017 4.802-7.693 9.438a8.306 8.306 0 0 0 2.45 5.517c1.891 1.784 4.508 2.284 7.026 2.47 1.343.095 2.692.062 4.028-.098 1.431-.167 2.813-.578 4.234-.774 2.283-.314 3.145 1.489 3.449 3.488.343 2.245-.137 4.9-2.616 5.567a10.787 10.787 0 0 1-3.636.176c-1.098-.078-2.676 0-3.567-.794-1.784-1.489-4.371 1.069-2.568 2.578 1.803 1.509 4.185 1.754 6.517 1.891 2.3.285 4.627-.227 6.595-1.45 3.617-2.636 3.773-8.389 1.715-12.044a5.88 5.88 0 0 0-5.488-3.097 34.705 34.705 0 0 0-4.008.725 20.09 20.09 0 0 1-3.988.225c-2.088-.088-4.606-.352-5.812-2.293a5.09 5.09 0 0 1-.255-4.743 6.537 6.537 0 0 1 5.341-3.381c1.608-.137 4.577.431 4.734 2.489.176 2.333 3.822 2.342 3.645 0v-.01z"/><path fill="#000" d="m655.209 320.245 3.008 5.792a1.832 1.832 0 0 0 2.489.647 1.862 1.862 0 0 0 .657-2.489l-3.009-5.782a1.833 1.833 0 0 0-2.499-.657 1.862 1.862 0 0 0-.646 2.489zm18.629 32.889c.221.206.424.429.608.667l-.284-.363c.305.394.559.826.754 1.284l-.196-.402c.15.354.265.722.343 1.098.126.457.425.847.833 1.088.426.242.93.306 1.402.176.458-.123.85-.422 1.088-.833l.186-.431c.09-.321.09-.66 0-.98a7.228 7.228 0 0 0-.794-2.097 7.12 7.12 0 0 0-.627-.912 6.163 6.163 0 0 0-.745-.852 1.894 1.894 0 0 0-1.284-.53 1.806 1.806 0 0 0-1.823 1.823c.004.481.193.941.53 1.284l.009-.02zm-76.675-10.309a1.823 1.823 0 1 0 0-3.646 1.823 1.823 0 0 0 0 3.646zm7.115-4.743a1.823 1.823 0 1 0 0-3.646 1.823 1.823 0 0 0 0 3.646zm-1.019 9.829a1.823 1.823 0 1 0 0-3.646 1.823 1.823 0 0 0 0 3.646z"/><path fill="#3EF194" d="M711.745 312.65a1.822 1.822 0 1 0 0-3.645 1.822 1.822 0 0 0 0 3.645z"/><path fill="#000" d="m716.586 305.624.676.333c.203.13.436.207.676.225.482.081.976-.051 1.353-.362.208-.122.383-.294.509-.5l.177-.441c.092-.32.092-.66 0-.98l-.177-.441a1.972 1.972 0 0 0-.656-.657l-.677-.333a1.34 1.34 0 0 0-.676-.215 1.296 1.296 0 0 0-.725 0 1.962 1.962 0 0 0-1.098.842l-.176.432c-.09.32-.09.659 0 .98l.176.431c.164.268.389.493.657.656l-.039.03zm1.254 11.456a1.823 1.823 0 1 0 0-3.646 1.823 1.823 0 0 0 0 3.646zm119.306-55.429c-3.234-1.881-7.184-3.116-10.78-1.538-3.127 1.372-5.332 4.763-4.303 8.212 1.069 3.597 4.489 5.429 7.723 6.733a15.795 15.795 0 0 1 4.733 2.42c1.098.98 2.176 2.529 1.539 4.038-.637 1.509-2.783 2.724-4.43 3.107-1.646.382-3.92-.089-3.92-2.049-.068-2.342-3.714-2.352-3.645 0 .127 4.234 4.331 6.38 8.153 5.655 3.607-.686 7.605-3.577 7.703-7.546.098-3.969-3.577-6.86-6.968-8.261-2.46-1.039-8.016-2.607-7.458-6.292.245-1.607 1.96-2.734 3.411-3.028 2.244-.441 4.547.598 6.438 1.695a1.821 1.821 0 0 0 2.744-1.561 1.822 1.822 0 0 0-.901-1.585h-.039z"/><path fill="#3EF194" d="m830.844 254.556-.264 4.508a1.823 1.823 0 1 0 3.645 0l.265-4.508a1.799 1.799 0 0 0-.529-1.284 1.848 1.848 0 0 0-1.294-.539 1.872 1.872 0 0 0-1.823 1.823zm-.882 33.036c0 .147.059.294.079.451l-.059-.49c.049.429.049.863 0 1.293l.059-.48a5.04 5.04 0 0 1-.334 1.254l.187-.441c-.163.38-.371.738-.618 1.069a1.826 1.826 0 0 0 .657 2.499c.425.242.929.306 1.401.176l.431-.176a1.83 1.83 0 0 0 .657-.657c.227-.304.417-.632.568-.98.22-.465.39-.951.51-1.45a7.057 7.057 0 0 0 0-3.068 1.833 1.833 0 0 0-2.244-1.274 1.872 1.872 0 0 0-1.274 2.244l-.02.03z"/><path fill="#000" d="M812.313 263.611a1.822 1.822 0 1 0 0-3.645 1.822 1.822 0 0 0 0 3.645zm-2.255 7.233a1.823 1.823 0 1 0 0-3.646 1.823 1.823 0 0 0 0 3.646zm35.702 18.982a1.823 1.823 0 1 0 0-3.646 1.823 1.823 0 0 0 0 3.646zm4.978-8.584a1.823 1.823 0 1 0 0-3.646 1.823 1.823 0 0 0 0 3.646z"/><path fill="#3EF194" d="M907.961 435.66a190.032 190.032 0 0 1-29.312 79.694 186.983 186.983 0 0 1-14.534 19.423c-1.509 1.764 1.049 4.361 2.578 2.568a192.1 192.1 0 0 0 24.5-36.358 191.973 191.973 0 0 0 20.384-65.327 1.844 1.844 0 0 0-1.823-1.823 1.863 1.863 0 0 0-1.793 1.823zm3.077 90.395 18.326-26.46c1.342-1.96-1.813-3.753-3.146-1.832l-18.326 26.46c-1.343 1.96 1.813 3.753 3.146 1.842v-.01zM644.34 729.915a53.144 53.144 0 0 1 26.46-14.308c2.294-.48 1.323-3.999-.98-3.509a56.649 56.649 0 0 0-28.037 15.239 1.823 1.823 0 0 0 2.577 2.578h-.02zm10.114 12.113a59.644 59.644 0 0 1 21.854-16.229 1.817 1.817 0 0 0 .657-2.489 1.872 1.872 0 0 0-2.49-.657 62.065 62.065 0 0 0-22.598 16.807c-1.51 1.784 1.058 4.371 2.577 2.577v-.009zm18.238 5.027.98-.98c.176-.158.305-.361.372-.588.115-.213.169-.454.157-.696a2.054 2.054 0 0 0-.529-1.293l-.373-.285a1.773 1.773 0 0 0-.921-.245l-.48.069a1.706 1.706 0 0 0-.804.461l-.98.98a2.06 2.06 0 0 0-.529 1.293c-.012.242.042.483.157.696.07.225.199.428.372.588l.373.284c.277.161.591.249.911.255l.49-.069c.304-.086.58-.248.804-.47zm-172.814 4.165a6.557 6.557 0 0 1 6.41 1.343 8.024 8.024 0 0 1 2.655 6.918 11.806 11.806 0 0 1-3.41 7.262 4.807 4.807 0 0 1-3.205 1.637c-.98 0-2.126-.657-2.156-1.715l-1.332 1.764a26.518 26.518 0 0 1 26.597 6.311c1.666 1.656 4.243-.921 2.577-2.577a30.192 30.192 0 0 0-30.145-7.223 1.861 1.861 0 0 0-1.342 1.754c.117 4.489 5.145 6.351 8.82 4.645 3.675-1.705 6.203-5.958 6.977-9.8a12.032 12.032 0 0 0-3.077-11.162 10.3 10.3 0 0 0-10.329-2.607c-2.195.765-1.254 4.283.98 3.509l-.02-.059zm-7.986 27.93 24.382 9.212c2.195.833 3.146-2.685.98-3.508l-24.392-9.212c-2.195-.833-3.146 2.685-.98 3.508h.01zm2.646 18.022 4.067 2.039c.432.233.935.296 1.411.176a1.821 1.821 0 0 0 1.274-2.234 1.815 1.815 0 0 0-.843-1.088l-4.086-2.038a1.96 1.96 0 0 0-1.402-.187 1.877 1.877 0 0 0-1.088.843 1.823 1.823 0 0 0 .647 2.489h.02z"/></svg>