<svg xmlns="http://www.w3.org/2000/svg" width="750" height="540" fill="none"><path fill="#3EF194" d="M654.394 230.412c-1.96-13.436-9.8-25.157-16.924-36.721-10.604-17.199-20.139-35.397-24.5-55.134-4.361-19.738-3.048-41.307 7.017-58.8 10.064-17.493 29.85-30.028 49.98-28.215 19.835 1.784 36.887 17.15 43.972 35.76 7.086 18.611 5.282 39.71-1.519 58.418-6.801 18.709-18.198 35.398-30.292 51.215a594.68 594.68 0 0 1-30.889 37.103m-370.323-63.602c12.74.666 26.176-3.92 34.388-13.72 8.213-9.8 10.055-25.098 2.754-35.594a30.382 30.382 0 0 1 10.956 4.998 43.246 43.246 0 0 1-7.928 75.46"/><path fill="#000" d="M280.916 171.583c10.535.499 21.413-2.343 29.812-8.869a33.53 33.53 0 0 0 13.034-26.186 28.033 28.033 0 0 0-4.724-15.954l-1.284 1.675c13.407 2.94 23.52 15.622 27.097 28.342a41.688 41.688 0 0 1-7.369 36.828 42.724 42.724 0 0 1-16.964 13.181c-1.343.569-.186 2.529 1.146 1.96a45.45 45.45 0 0 0 25.647-29.831c3.577-13.514 0-28.175-8.653-39.033-5.077-6.37-12.231-11.819-20.296-13.593-.902-.196-1.882.794-1.284 1.666 5.4 7.899 5.596 18.336 1.842 26.97-3.92 9.114-12.23 15.464-21.56 18.483a46.413 46.413 0 0 1-16.473 2.126c-1.461-.068-1.461 2.215 0 2.284l.029-.049z"/><path fill="#3EF194" d="M137.16 201.394c-15.435-4.263-25.902-20.982-24.324-36.917 1.578-15.935 14.122-29.821 29.469-34.398-3.754 3.656-4.714 9.506-3.548 14.612 1.166 5.106 4.155 9.604 7.409 13.72a38.632 38.632 0 0 0 9.114 8.82c14.181 9.124 33.986 1.578 49.216 8.82"/><path fill="#000" d="M137.424 200.296c-11.564-3.273-20.08-13.553-22.765-25.068-2.832-12.133 1.715-24.608 10.319-33.32a41.732 41.732 0 0 1 17.591-10.702l-1.107-1.901c-4.332 4.351-5.184 10.986-3.587 16.719 1.794 6.468 6.233 12.279 10.78 17.101a30.309 30.309 0 0 0 16.2 9.143c6.066 1.274 12.318 1.196 18.482 1.323 6.958.137 14.152.48 20.58 3.469 1.323.608 2.48-1.352 1.157-1.96-10.908-5.086-23.138-3.136-34.741-4.282-5.831-.579-11.643-2.147-16.317-5.822a42.905 42.905 0 0 1-6.919-7.193 45.396 45.396 0 0 1-5.4-8.242c-2.871-5.88-3.547-13.651 1.411-18.62a1.146 1.146 0 0 0-1.107-1.901 43.966 43.966 0 0 0-27.901 25.48 36.956 36.956 0 0 0 5.42 36.103 33.578 33.578 0 0 0 17.258 11.868 1.138 1.138 0 1 0 .607-2.195h.039zm35.751 115.395c-8.82-.284-17.15 3.675-24.98 7.723-15.141 7.84-30.037 16.464-42.669 27.9-12.633 11.437-22.942 25.951-27.088 42.483-2.067 8.271-2.499 17.297.931 25.108 4.9 11.231 16.749 17.816 28.42 21.472 39.142 12.259 81.34.323 120.384-12.25a15.945 15.945 0 0 0 29.4 1.264c2.009-4.253 2.028-9.144 1.842-13.848a180.741 180.741 0 0 0-2.019-20.442 19.444 19.444 0 0 0-1.96-6.733c-3.861-6.801-13.436-6.997-21.236-6.321l-62.74 5.478c-1.676.147-3.508.245-4.9-.725a5.124 5.124 0 0 1-1.882-3.41c-.98-6.106 4.322-11.231 9.154-15.092l69.452-55.596"/><path fill="#F2EFE6" d="M173.175 314.555c-10.78-.265-20.58 5.213-29.822 10.103a225.717 225.717 0 0 0-27.214 16.66c-15.896 11.574-29.88 26.637-36.691 45.365-3.401 9.349-5.312 20.09-2.225 29.782 2.764 8.712 9.516 15.209 17.336 19.6 8.663 4.851 18.561 7.507 28.312 9.065a137.413 137.413 0 0 0 32.527 1.088c22.285-1.774 44.002-7.762 65.248-14.436l7.84-2.499-1.401-.794c2.734 7.145 10.182 12.074 17.894 11.143a17.767 17.767 0 0 0 10.055-4.812 18.221 18.221 0 0 0 5.292-10.976c.657-4.782.245-9.712-.117-14.504a182.799 182.799 0 0 0-1.755-14.955c-.637-3.92-1.862-7.653-5.135-10.172a18.954 18.954 0 0 0-9.614-3.361 59.265 59.265 0 0 0-11.417.225l-15.827 1.382-31.409 2.734-8.036.706c-2.44.205-4.9.597-7.379.578-5.302 0-4.292-6.527-2.43-9.663 2.165-3.655 5.664-6.321 8.927-8.938l12.407-9.927 49.422-39.553 6.105-4.9c1.137-.911-.48-2.518-1.617-1.607l-48.275 38.651-12.015 9.614c-3.792 3.038-7.702 5.958-11.348 9.163-2.871 2.509-5.684 5.508-6.86 9.212-1.058 3.254-.755 8.114 2.832 9.692 1.96.872 4.273.471 6.36.294l7.546-.656 15.592-1.363 30.655-2.636c4.263-.372 8.565-.911 12.857-.901 3.42 0 7.066.323 10.173 1.871 3.596 1.784 5.301 4.9 6.036 8.752a137.237 137.237 0 0 1 1.853 14.778c.676 8.418 2.165 19.1-4.959 25.304-6.063 5.284-15.231 4.78-20.678-1.137a14.45 14.45 0 0 1-2.94-4.704 1.166 1.166 0 0 0-1.402-.794c-20.58 6.635-41.493 12.975-63.014 15.837-20.462 2.724-42.198 2.274-61.661-5.302-7.997-3.116-15.945-7.84-20.708-15.239-5.527-8.526-5.311-19.09-2.871-28.616 4.773-18.62 17.307-34.212 32.007-46.128a182.884 182.884 0 0 1 25.529-16.964 354.295 354.295 0 0 1 13.72-7.331 64.158 64.158 0 0 1 14.533-5.664 30.975 30.975 0 0 1 7.713-.784 1.147 1.147 0 0 0 0-2.283h.049z"/><path fill="#000" d="M215.56 327.794a202.487 202.487 0 0 1 54.763 20.58c8.369 4.616 17.542 12.172 15.885 21.56-1.773 10.075-14.151 13.642-24.264 15.131l-34.79 5.145c-8.017 1.186-17.591 3.656-19.875 11.427-.911 3.117-.372 6.458.284 9.634 2.117 10.192 5.557 20.58 12.838 27.979 13.858 14.161 37.329 13.377 55.674 5.88 18.346-7.497 34.065-20.355 52.215-28.313 6.801-2.94 14.023-5.321 19.943-9.8 11.671-8.82 16.15-25.048 13.72-39.494-2.431-14.445-10.78-27.283-20.796-38.004a138.53 138.53 0 0 0-48.892-33.555"/><path fill="#F2EFE6" d="M215.256 328.892a202.24 202.24 0 0 1 53.508 19.904c6.361 3.469 14.014 8.33 16.063 15.778a11.854 11.854 0 0 1-1.578 9.722 17.856 17.856 0 0 1-7.478 5.88c-7.154 3.361-15.356 3.998-23.069 5.135l-15.219 2.254c-4.616.676-9.271 1.225-13.857 2.107-6.253 1.205-13.789 3.567-16.719 9.8-1.911 4.057-1.206 8.477-.314 12.74a84.837 84.837 0 0 0 3.46 12.201c2.881 7.644 7.32 14.631 13.984 19.512a41.66 41.66 0 0 0 20.237 7.379c16.298 1.764 31.86-3.92 45.913-11.701 7.997-4.41 15.68-9.379 23.569-13.946 3.92-2.263 7.84-4.429 11.976-6.37 4.135-1.94 8.32-3.537 12.475-5.341a50.312 50.312 0 0 0 11.398-6.566 34.535 34.535 0 0 0 7.457-8.33 43.682 43.682 0 0 0 6.596-21.315c.901-16.934-7.625-32.683-18.316-45.207a136.375 136.375 0 0 0-41.16-32.34c-3.783-1.96-7.654-3.704-11.584-5.321-1.352-.549-1.96 1.646-.608 2.195a138.103 138.103 0 0 1 43.444 28.234c12.093 11.671 22.981 26.215 25.568 43.237 2.264 14.935-3.107 31.507-16.425 39.612a82.847 82.847 0 0 1-11.887 5.625c-4.116 1.686-8.164 3.469-12.123 5.517-7.987 4.126-15.572 8.958-23.285 13.564-7.712 4.606-15.327 8.947-23.618 12.024a68.12 68.12 0 0 1-22.079 4.391 45.334 45.334 0 0 1-21.099-4.175 35.73 35.73 0 0 1-16.082-16.474 62.001 62.001 0 0 1-4.312-11.76c-1.108-4.126-2.509-8.751-2.048-13.054.803-7.526 8.878-10.407 15.248-11.76 4.254-.901 8.605-1.391 12.897-2.028l14.945-2.235c7.84-1.166 16.131-1.793 23.599-4.753 5.782-2.283 11.436-6.291 12.573-12.818 1.313-7.507-3.685-13.828-9.271-18.199a69.704 69.704 0 0 0-10.29-6.389 209.576 209.576 0 0 0-12.495-6.057 204.989 204.989 0 0 0-26.136-9.555 200.93 200.93 0 0 0-13.25-3.351c-1.431-.314-2.038 1.881-.608 2.195v.039z"/><path fill="#F2EFE6" d="M322.282 182.46c-13.926-9.447-31.84-13.455-49-14.141-19.002-.764-37.907 1.833-56.84 2.058-18.336.216-37.789 2.283-55.635 6.987-14.18 3.744-27.959 10.134-38.416 20.414-17.963 17.64-23.892 44.6-22.54 69.746.627 11.378 2.793 23.217 9.869 32.164 8.438 10.662 22.285 15.327 35.554 18.306 32.634 7.311 66.709 7.654 99.686 2.058 23.079-3.92 46.06-10.946 65.219-24.5 19.159-13.553 34.045-34.192 36.701-57.457 1.754-15.474-2.186-31.762-11.868-43.953a56.84 56.84 0 0 0-12.73-11.682z"/><path fill="#000" d="M151.155 221.406c-4.655 10.642-14.289 18.355-24.5 23.804-6.351 3.371-13.564 6.105-20.58 4.694-2.147-.421-4.45-1.45-5.214-3.508a7.58 7.58 0 0 1 0-3.999 119.11 119.11 0 0 1 6.478-22.452"/><path fill="#000" d="M150.165 220.828c-4.322 9.8-12.672 16.895-21.776 22.099-5.017 2.871-10.505 5.556-16.336 6.115-2.735.264-6.018.235-8.468-1.176-2.832-1.627-1.822-4.783-1.283-7.419a119.914 119.914 0 0 1 6.036-20.198c.539-1.362-1.666-1.96-2.195-.607a120.56 120.56 0 0 0-5.948 19.747c-.579 2.803-1.647 6.223.264 8.741 1.588 2.098 4.342 2.813 6.86 3.127 6.527.823 12.985-1.539 18.718-4.45a72.164 72.164 0 0 0 14.494-9.594 43.937 43.937 0 0 0 11.633-15.229c.588-1.333-1.372-2.489-1.96-1.156h-.039z"/><path fill="#3EF194" d="M278.417 236.762a762.817 762.817 0 0 0-56.438 6.438c-4.645.706-9.379 1.49-13.495 3.754a21.04 21.04 0 0 0-10.466 20.521c1.107 8.898 8.095 16.248 16.248 19.992 8.154 3.744 17.356 4.43 26.323 4.469 13.612.068 27.714-1.362 39.504-8.173 11.789-6.811 20.658-20.12 18.708-33.585-.568-3.92-2.136-7.918-5.204-10.457-3.067-2.538-7.84-3.273-11.074-.98"/><path fill="#000" d="M322.86 181.471c-18.894-12.74-42.444-15.014-64.631-14.298-12.642.411-25.245 1.636-37.896 1.96-6.018.166-12.025.225-18.042.607a244.55 244.55 0 0 0-17.846 1.794c-21.687 2.94-44.453 8.594-61.064 23.716-14.847 13.504-22.109 33.153-24.186 52.733a112.87 112.87 0 0 0 .715 30.38c1.705 10.212 5.772 20.051 13.72 26.96 7.487 6.517 17.033 10.084 26.519 12.544a225.906 225.906 0 0 0 35.035 5.949 266.314 266.314 0 0 0 73.079-3.254c21.834-3.969 43.649-10.868 61.994-23.677 16.18-11.289 29.508-27.528 35.28-46.599 5.88-19.747 2.744-42.355-10.78-58.329a59.17 59.17 0 0 0-11.848-10.545c-1.215-.823-2.352 1.147-1.146 1.96a54.56 54.56 0 0 1 19.845 24.137 61.747 61.747 0 0 1 4.243 29.714c-1.96 19.512-12.867 37.24-27.224 50.156-15.896 14.348-36.182 22.844-56.762 27.95a258.64 258.64 0 0 1-69.639 7.262 248.583 248.583 0 0 1-35.466-3.479c-10.241-1.794-20.776-3.92-30.282-8.291-8.977-4.145-16.386-10.515-20.502-19.6-4.223-9.359-5.096-20.061-5.135-30.204-.059-19.208 4.263-39.2 15.837-54.88a68.034 68.034 0 0 1 23.03-19.433c9.496-5.047 19.825-8.095 30.311-10.31a230.06 230.06 0 0 1 34.761-4.498c5.821-.313 11.642-.323 17.454-.519 6.164-.206 12.318-.608 18.473-.98 22.599-1.441 45.834-2.558 67.326 5.88a71.718 71.718 0 0 1 13.641 7.144c1.255.843 2.401-1.127 1.186-1.95z"/><path fill="#F2EFE6" d="M153.222 222.944c-6.487 7.752-16.032 12.485-25.881 14.788-9.849 2.303-20.071 2.352-30.175 2.029-12.808-.402-26.91-1.96-35.672-11.319-1.313-1.402-2.528-3.117-2.508-5.047 0-2.382 1.891-4.302 3.675-5.88a117.406 117.406 0 0 1 82.917-29.038"/><path fill="#000" d="M152.419 222.16c-8.722 10.29-22.109 14.798-35.182 16.092-7.171.605-14.374.719-21.56.343a81.827 81.827 0 0 1-17.934-2.303c-5.537-1.48-10.868-3.979-14.935-8.105a8.56 8.56 0 0 1-2.607-3.92c-.343-1.656.529-3.106 1.607-4.302a55.731 55.731 0 0 1 7.242-6.242 116.506 116.506 0 0 1 76.518-24.059c1.47.078 1.461-2.205 0-2.274a118.669 118.669 0 0 0-76.293 23.324 98.49 98.49 0 0 0-7.84 6.429c-2.224 2.038-4.223 4.733-3.37 7.918.803 2.94 3.518 5.351 5.88 7.184a33.013 33.013 0 0 0 7.673 4.4c5.88 2.43 12.181 3.43 18.453 3.92 7.263.581 14.556.702 21.834.362 13.848-.656 28.254-3.988 38.75-13.602a38.637 38.637 0 0 0 3.4-3.538c.98-1.107-.666-2.734-1.617-1.607l-.019-.02zm125.998 13.466a804.581 804.581 0 0 0-30.694 2.94c-9.956 1.166-19.992 2.312-29.85 4.125-4.185.775-8.438 1.96-11.927 4.499-9.631 6.956-12.011 20.296-5.38 30.154 9.986 15.229 30.243 16.229 46.638 15.602 16.964-.647 34.957-4.9 45.766-19.071 4.675-6.115 7.644-13.72 7.193-21.56-.431-7.399-4.518-16.199-13.083-16.15a9.064 9.064 0 0 0-5.125 1.548c-1.206.823-.069 2.793 1.146 1.96 2.94-2.009 6.978-1.421 9.693.774 3.018 2.45 4.459 6.419 4.9 10.173.931 7.232-1.441 14.455-5.518 20.393-9.329 13.593-25.891 18.395-41.581 19.434-8.448.549-17.258.627-25.598-.931-7.644-1.421-14.984-4.567-20.247-10.447-4.831-5.39-7.065-12.652-4.9-19.698a20.317 20.317 0 0 1 5.508-8.82 22.538 22.538 0 0 1 10.574-5.155c4.283-.98 8.693-1.519 13.044-2.136 4.704-.654 9.418-1.281 14.141-1.882a709.246 709.246 0 0 1 28.254-2.94l7.017-.568c1.46-.108 1.47-2.391 0-2.274l.029.03zm-68.345-12.613c2.744-.755 3.685-4.303 3.067-7.076-.382-1.715-1.519-3.577-3.283-3.636-1.764-.059-3.097 1.882-3.714 3.636a22.768 22.768 0 0 0-1.049 10.868 5.41 5.41 0 0 0 .608 1.96c1.107 1.803 4.116 1.764 5.4.079a4.253 4.253 0 0 0-.912-5.655"/><path fill="#000" d="M210.376 224.12c3.342-.98 4.459-4.812 3.92-7.958a6.438 6.438 0 0 0-2.519-4.37 3.84 3.84 0 0 0-4.694.46 9.798 9.798 0 0 0-2.538 4.851 24.273 24.273 0 0 0-.872 6.664c0 1.96 0 4.43 1.293 6.017a4.418 4.418 0 0 0 4.224 1.431c4.253-.725 4.743-6.282 1.764-8.82-1.117-.931-2.734.667-1.607 1.617 1.48 1.245 2.009 4.302-.372 4.9a2.128 2.128 0 0 1-2.323-.705c-.745-1.137-.666-3.019-.696-4.322-.049-2.891.333-6.311 1.794-8.82.48-.823 1.313-1.882 2.401-1.539 1.087.343 1.558 1.578 1.803 2.519.519 2.019.098 5.184-2.215 5.88-1.401.421-.804 2.626.598 2.195h.039zm62.553-6.242c2.734-.755 3.685-4.302 3.067-7.066-.392-1.725-1.528-3.587-3.283-3.646-1.754-.058-3.106 1.882-3.724 3.636a22.88 22.88 0 0 0-1.038 10.868c.071.687.277 1.354.607 1.96 1.098 1.804 4.116 1.764 5.39.079a4.244 4.244 0 0 0-.911-5.655"/><path fill="#000" d="M273.233 218.975c3.332-.98 4.449-4.811 3.92-7.957a6.409 6.409 0 0 0-2.519-4.371 3.842 3.842 0 0 0-4.694.461 9.88 9.88 0 0 0-2.538 4.851 23.884 23.884 0 0 0-.863 6.664c0 1.96 0 4.439 1.294 6.017a4.391 4.391 0 0 0 4.214 1.431c4.263-.726 4.753-6.282 1.764-8.82-1.107-.931-2.734.666-1.607 1.617 1.48 1.244 2.019 4.302-.373 4.9a2.127 2.127 0 0 1-2.322-.706c-.735-1.137-.667-3.018-.686-4.322-.059-2.881.323-6.301 1.793-8.82.471-.823 1.313-1.881 2.391-1.538 1.078.343 1.559 1.577 1.804 2.518.529 2.029.098 5.184-2.215 5.88-1.402.422-.804 2.627.607 2.195h.03zm-10.8 14.18a120.889 120.889 0 0 0-31.703 4.685 4.99 4.99 0 0 0-2.42 1.225 4.672 4.672 0 0 0-.921 2.94c-.236 4.037.519 8.359 3.263 11.329 2.538 2.744 6.331 3.92 9.986 4.635 6.292 1.264 12.936 1.617 19.051-.343 6.116-1.96 11.633-6.517 13.564-12.642 1-2.785.82-5.858-.5-8.506-1.451-2.539-4.675-4.156-7.429-3.176"/><path fill="#000" d="M262.433 232.019a122.974 122.974 0 0 0-28.42 3.754c-1.871.47-4.145.793-5.782 1.871-1.636 1.078-1.901 2.803-1.96 4.538-.205 3.792.481 7.889 2.823 10.986 2.342 3.096 6.046 4.664 9.8 5.546a47.309 47.309 0 0 0 13.426 1.353c7.84-.422 15.68-3.705 20.07-10.467 2.293-3.537 3.597-8.29 2.048-12.367-1.391-3.675-5.409-6.292-9.339-5.047-1.392.441-.794 2.636.608 2.195 3.224-1.029 6.164 1.548 6.86 4.577.793 3.322-.432 6.86-2.264 9.643-3.812 5.752-10.643 8.643-17.327 9.143-3.94.247-7.896-.04-11.76-.852-3.283-.647-6.86-1.568-9.29-3.969-2.43-2.401-3.322-5.88-3.371-9.222 0-1.48-.196-3.607 1.362-4.351a28.185 28.185 0 0 1 5.449-1.549 120.498 120.498 0 0 1 27.126-3.508 1.137 1.137 0 1 0 0-2.274h-.059z"/><path fill="#000" d="M241.52 252.766c-3.518 2.656-6.497 6.644-5.174 11.28 1.323 4.635 5.586 7.193 10.045 7.84a24.169 24.169 0 0 0 14.112-2.588c4.047-2.048 8.075-5.331 9.721-9.682 1.588-4.204-.058-9.682-4.704-11.005a1.138 1.138 0 0 0-.597 2.195c3.312.98 4.233 4.9 3.234 7.84-1.216 3.577-4.557 6.301-7.733 8.114-5.88 3.342-16.748 5.478-21.04-1.431-2.499-4.027-.079-8.045 3.283-10.584 1.156-.872 0-2.851-1.147-1.96v-.019zm-25.96 3.499c-.882 4.027 1.313 8.173 3.851 11.162 2.538 2.989 6.488 4.988 10.535 4.233 1.441-.264.833-2.459-.598-2.195-3.253.598-6.301-1.254-8.33-3.645-2.028-2.392-3.92-5.802-3.263-8.948.314-1.431-1.882-2.038-2.195-.607zm-21.315-51.618a20.99 20.99 0 0 1 16.66-7.702 1.137 1.137 0 1 0 0-2.274 23.119 23.119 0 0 0-18.238 8.369c-.921 1.127.676 2.744 1.607 1.607h-.029zm73.539-9.565a15.143 15.143 0 0 1 16.268 0c1.235.804 2.372-1.166 1.147-1.96a17.415 17.415 0 0 0-18.571 0c-1.225.794-.088 2.764 1.156 1.96z"/><path fill="#F2EFE6" d="M318.352 184.509a165.632 165.632 0 0 1 70.981 1.117 9.593 9.593 0 0 1 3.773 1.519 6.467 6.467 0 0 1 1.96 6.39 16.257 16.257 0 0 1-3.234 6.174c-4.194 5.605-9.368 10.692-15.797 13.494-5.959 2.597-12.613 3.058-19.11 3.372-6.498.313-12.74.499-19.002-.765-6.263-1.264-12.339-4.106-16.415-8.977"/><path fill="#000" d="M318.656 185.606a164.617 164.617 0 0 1 67.198.402c2.323.499 5.88.735 7.321 2.861 1.352 1.96.98 4.577 0 6.596a30.312 30.312 0 0 1-4.39 6.233 47.533 47.533 0 0 1-4.989 5.135 31.371 31.371 0 0 1-13.092 6.958c-5.253 1.323-10.731 1.528-16.121 1.754-11.339.451-24.353-.216-32.34-9.516-.98-1.117-2.558.5-1.617 1.607 7.31 8.556 19.061 10.418 29.713 10.3 11.251-.127 23.305-.509 32.644-7.565a49.495 49.495 0 0 0 10.496-11.094c2.597-3.695 4.586-9.663.304-13.024-2.127-1.666-5.234-1.96-7.84-2.539a149.025 149.025 0 0 0-9.134-1.675 166.795 166.795 0 0 0-58.8 1.372c-1.441.294-.833 2.489.598 2.195h.049z"/><path fill="#F2EFE6" d="M335.287 228.893a698.434 698.434 0 0 0 132.907-50.676c8.203-4.126 17.728-8.447 26.343-6.997a3.646 3.646 0 0 1 1.96 6.145 46.277 46.277 0 0 1-21.766 12.455 8.077 8.077 0 0 1 14.425-.136 8.078 8.078 0 0 1-.646 8.447c-1.96-4.283 5.409-7.84 8.967-4.743 3.557 3.096 3.41 8.594 2.342 13.161-1.147 4.831-3.273 9.8-7.536 12.397-4.263 2.597-10.967 1.274-12.505-3.45-3.548 4.067-10.182 2.94-15.004.51-4.822-2.43-9.594-5.88-14.974-5.527-3.617.255-6.86 2.254-9.957 4.126a269.405 269.405 0 0 1-119.325 38.053"/><path fill="#000" d="M359.218 224.12c4.9-3.587 11.172-4.587 17.17-5.478a3.713 3.713 0 0 1 1.832 0c.543.257 1.017.64 1.382 1.117a606.929 606.929 0 0 1 12.084 14.092c.356.351.59.809.666 1.304 0 .833-.813 1.391-1.548 1.783a91.523 91.523 0 0 1-24.824 8.742"/><path fill="#000" d="M359.796 225.1a28.307 28.307 0 0 1 11.065-4.38 57.074 57.074 0 0 1 6.056-.98c1.156-.108 1.646.617 2.352 1.421l2.352 2.685a619.683 619.683 0 0 1 4.665 5.41l2.146 2.538a23.914 23.914 0 0 1 2.45 2.94c.294.519.323.686-.235 1.058-.391.241-.797.457-1.215.647-.98.51-1.96.98-3.009 1.48a84.908 84.908 0 0 1-6.331 2.656 93.524 93.524 0 0 1-14.416 4.086c-1.44.284-.833 2.48.608 2.195a93.151 93.151 0 0 0 15.033-4.321 96.297 96.297 0 0 0 6.86-2.94c1.647-.775 4.587-1.666 5.194-3.626a2.774 2.774 0 0 0-.647-2.548c-.842-1.108-1.783-2.156-2.675-3.215a391.48 391.48 0 0 0-5.253-6.154l-2.636-3.126a21.005 21.005 0 0 0-2.617-2.823c-1.734-1.342-4.292-.48-6.252-.166-5.135.842-10.329 2.087-14.622 5.154-1.185.853 0 2.823 1.147 1.96l-.02.049z"/><path fill="#000" d="M335.59 230a701.658 701.658 0 0 0 77.597-25.784 719.285 719.285 0 0 0 37.181-16.082 700.133 700.133 0 0 0 18.404-8.918c5.694-2.861 11.594-5.674 17.924-6.762a24.655 24.655 0 0 1 5.439-.343c1.265.059 2.882 0 3.744 1.127 1.96 2.509-1.764 4.959-3.41 6.341a45.238 45.238 0 0 1-18.042 9.153l1.293 1.676a7.274 7.274 0 0 1 9.879-2.999c3.41 2.058 4.135 6.997 1.96 10.153l2.087.274c-1.107-2.675 2.078-4.41 4.371-4.459 3.606-.078 5.155 3.832 5.341 6.86a24.773 24.773 0 0 1-2.303 11.143c-1.45 3.253-3.92 6.546-7.517 7.458-3.204.793-7.457-.236-8.663-3.656a1.148 1.148 0 0 0-1.901-.5c-3.156 3.46-8.457 2.548-12.338.922-4.812-2.009-8.977-5.498-14.298-6.184-5.567-.725-10.212 2.499-14.749 5.204a256.2 256.2 0 0 1-15.073 8.32 268.877 268.877 0 0 1-63.955 22.961 266.416 266.416 0 0 1-38.043 5.655c-1.46.108-1.47 2.381 0 2.273a271.443 271.443 0 0 0 99.254-26.92 261.981 261.981 0 0 0 15.386-8.183c2.499-1.431 4.9-2.94 7.438-4.4 2.539-1.461 5.106-2.705 8.007-2.705 5.958 0 10.78 4.478 16.082 6.478 4.527 1.705 10.349 2.126 13.896-1.764l-1.901-.5c1.372 3.92 5.439 5.821 9.408 5.556 4.704-.313 8.271-3.626 10.368-7.663a26.082 26.082 0 0 0 3.078-14.112c-.432-4.067-2.833-8.487-7.429-8.487-3.675 0-8.418 3.175-6.693 7.34a1.147 1.147 0 0 0 2.077.275 9.565 9.565 0 0 0-2.744-13.26c-4.4-2.665-10.682-.725-12.994 3.803a1.155 1.155 0 0 0 1.283 1.675 47.275 47.275 0 0 0 16.886-8.094 54.893 54.893 0 0 0 3.342-2.744 12.211 12.211 0 0 0 2.891-3.127 4.901 4.901 0 0 0-1.274-5.929c-2.078-1.656-5.557-1.401-8.036-1.185a38.979 38.979 0 0 0-9.614 2.195c-6.468 2.273-12.495 5.625-18.62 8.624a695.355 695.355 0 0 1-79.498 32.977 705.81 705.81 0 0 1-46.138 14.112 1.139 1.139 0 0 0 .607 2.195l.01.01z"/><path fill="#F2EFE6" d="M124.763 263.134a240.835 240.835 0 0 0-46.11 11.868c-13.778 5.047-28.233 12.485-33.907 26.019-5.576 13.298-.745 29.204 8.653 40.121 9.398 10.917 22.638 17.748 35.858 23.52 22.031 9.516 45.453 16.866 69.463 17.238 2.94 0 6.39-.265 8.026-2.734 1.637-2.47.284-6.302-2.293-8.017-2.577-1.715-5.88-1.832-8.947-1.558a16.66 16.66 0 0 0 18.698 5.449 21.118 21.118 0 0 0-9.026-14.21c2.666 2.94 5.655 6.076 9.585 6.654 3.929.578 8.496-3.146 7.105-6.86a8.6 8.6 0 0 0-3.215-3.547c-7.183-5.41-16.66-10.888-24.578-6.635a13.848 13.848 0 0 0 15.592-3.136c-7.164-6.556-17.866-7.33-27.538-6.439-9.673.892-19.463 3.107-28.979 1.196-8.389-1.686-15.788-6.419-22.971-11.054-5.332-3.45-11.114-7.497-12.495-13.72-1.852-8.252 5.106-15.974 12.583-19.914a47.14 47.14 0 0 1 30.106-4.655"/><path fill="#000" d="M124.469 262.036a241.532 241.532 0 0 0-31.468 7.037c-9.026 2.656-18.11 5.664-26.558 9.888-7.271 3.626-14.18 8.389-19.022 15.023a33.067 33.067 0 0 0-5.88 23.726A46.451 46.451 0 0 0 51.9 341.073c5.88 7.194 13.612 12.74 21.697 17.219a211.693 211.693 0 0 0 26.323 11.917 208.39 208.39 0 0 0 29.89 9.261 162.07 162.07 0 0 0 14.994 2.587 102.23 102.23 0 0 0 15.18.98c3.685-.108 8.095-1.382 8.644-5.655.509-4.047-2.656-7.408-6.331-8.477a18.535 18.535 0 0 0-6.733-.46c-.745.068-1.558.98-.98 1.715a17.906 17.906 0 0 0 19.973 6.007c.593-.184.94-.798.793-1.401a22.474 22.474 0 0 0-9.545-14.886c-1.117-.765-2.215.862-1.382 1.783 2.676 2.94 5.763 6.213 9.889 6.919a8.035 8.035 0 0 0 8.535-4.42c1.696-3.92-1.695-6.683-4.537-8.751a44.595 44.595 0 0 0-11.505-6.409c-4.391-1.519-9.065-1.686-13.26.49a1.145 1.145 0 0 0 0 1.96 15.094 15.094 0 0 0 16.935-3.323 1.167 1.167 0 0 0 0-1.617c-7.154-6.438-17.209-7.546-26.46-6.928-11.309.764-22.756 3.92-33.938.539a61.954 61.954 0 0 1-14.7-7.164c-4.155-2.577-8.575-5.135-12.103-8.565-3.253-3.166-5.438-7.399-4.507-12.035.93-4.635 4.076-8.281 7.614-11.064a39.395 39.395 0 0 1 15.749-7.026 45.992 45.992 0 0 1 17.963-.432c1.431.245 2.048-1.96.608-2.195a48.1 48.1 0 0 0-31.958 5.322c-7.781 4.478-15.347 13.573-11.368 22.99 1.842 4.391 5.645 7.546 9.467 10.192a126.224 126.224 0 0 0 14.014 8.585 44.188 44.188 0 0 0 16.248 5.047c6.174.569 12.368-.255 18.483-.98 11.054-1.372 24.314-2.724 33.32 5.371v-1.617a12.742 12.742 0 0 1-14.22 2.94v1.96c6.448-3.332 13.72.137 19.257 3.704a66.911 66.911 0 0 1 4.175 2.94c1.225.98 2.773 2.097 2.94 3.763.215 2.803-3.313 4.743-5.733 4.577-3.861-.265-6.86-3.705-9.261-6.37l-1.47 1.754a20.246 20.246 0 0 1 8.506 13.534l.794-1.402a15.62 15.62 0 0 1-17.395-4.958l-.98 1.715c3.871-.324 9.192 0 10.594 4.41a3.793 3.793 0 0 1-1.598 4.606 10.7 10.7 0 0 1-5.439 1.029 135.03 135.03 0 0 1-28.919-3.538 206.245 206.245 0 0 1-27.764-8.467 225.162 225.162 0 0 1-25.343-11.163c-15.013-7.918-29.066-19.649-32.741-37.024a31.654 31.654 0 0 1 3.528-23.089c3.998-6.605 10.31-11.417 16.993-15.092 7.517-4.145 15.68-7.007 23.863-9.604a240.023 240.023 0 0 1 29.008-7.291c2.45-.451 4.906-.869 7.369-1.254 1.451-.216.833-2.411-.597-2.196h-.01z"/><path fill="#3EF194" d="M273.743 81.216c-2.333-6.39-3.754-15.062 1.039-20.756 3.341-3.989 10.535-6.282 14.758-2.303 1.48 1.382 2.744 5.723-.225 6.184l1.401.794c-1.244-6.312-2.028-12.495-.49-18.836a28.072 28.072 0 0 1 8.517-14.592c7.996-6.997 21.462-8.203 28.998.108a18.383 18.383 0 0 1 4.772 13.484 14.49 14.49 0 0 1-.705 3.46c-.343 1.058-.98 3.155-2.293 3.165-1.314.01-2.019-1.627-1.96-2.783.18-1.634.722-3.208 1.587-4.606 5.037-9.467 16.66-14.769 27.038-11.76a24.498 24.498 0 0 1 13.671 10.398c1.441 2.303 2.872 5.174 2.94 7.948.069 1.96-.48 5.233-3.018 5.017l.804.333c-2.607-2.94 2.067-6.86 4.263-8.29a33.015 33.015 0 0 1 11.975-4.646c3.92-.705 8.967-1.166 12.299 1.51 3.126 2.508 4.841 6.762 5.763 10.554a27.142 27.142 0 0 1-.49 14.377l1.401-.804-3.126-.784.794.794c-.373-2.323 1.332-4.361 3.253-5.41 2.421-1.323 5.282-.98 7.84-.098 5.341 1.804 9.692 5.655 15.425 6.43 1.451.195 1.431-2.088 0-2.274-6.683-.902-11.681-6.478-18.473-7.145-5.223-.51-11.132 3.313-10.201 9.105.101.389.404.692.793.793l3.136.794a1.167 1.167 0 0 0 1.392-.803 29.453 29.453 0 0 0 .715-14.563c-.901-4.41-2.832-9.31-6.291-12.338-3.734-3.283-8.889-3.195-13.554-2.539a34.954 34.954 0 0 0-13.935 5.194c-3.028 1.96-6.86 5.655-5.753 9.693a4.326 4.326 0 0 0 1.196 2.067c.795.46 1.764.504 2.597.118a5.292 5.292 0 0 0 2.94-3.322c1.352-3.656.059-7.585-1.617-10.898a26.715 26.715 0 0 0-7.987-9.349 24.991 24.991 0 0 0-23.648-3.42 27.166 27.166 0 0 0-10.446 6.987 25.342 25.342 0 0 0-3.666 5.145c-1.048 1.96-2.107 4.293-1.862 6.576a4.675 4.675 0 0 0 3.47 4.155c2.195.5 3.704-1.156 4.547-2.94a17.982 17.982 0 0 0 1.048-11.26 20.472 20.472 0 0 0-16.121-15.778 25.645 25.645 0 0 0-23.382 8.252c-5.998 6.762-8.526 16.18-7.693 25.097.264 2.793.803 5.547 1.342 8.291.18.597.797.946 1.402.794 3.283-.5 3.92-4.44 3.067-7.115-1.068-3.214-4.351-5.086-7.575-5.488-3.52-.35-7.043.63-9.879 2.744a15.41 15.41 0 0 0-5.88 10.016c-.872 5.096.118 10.329 1.872 15.131.5 1.362 2.695.774 2.195-.608h.02zM93.409 57.465c-2.333-6.39-3.754-15.063 1.039-20.757 3.341-3.989 10.535-6.282 14.758-2.303 1.48 1.382 2.744 5.723-.225 6.184l1.401.794c-1.244-6.312-2.028-12.495-.49-18.836a28.072 28.072 0 0 1 8.517-14.592c7.996-6.997 21.462-8.203 28.998.108a18.383 18.383 0 0 1 4.772 13.484 14.49 14.49 0 0 1-.705 3.46c-.343 1.058-.98 3.155-2.293 3.165-1.314.01-2.019-1.627-1.96-2.783.18-1.634.722-3.208 1.587-4.606 5.037-9.467 16.66-14.769 27.038-11.76a24.498 24.498 0 0 1 13.671 10.398c1.441 2.303 2.872 5.174 2.94 7.948.069 1.96-.48 5.233-3.018 5.017l.804.333c-2.607-2.94 2.067-6.86 4.263-8.29a33.013 33.013 0 0 1 11.975-4.645c3.92-.706 8.967-1.167 12.299 1.509 3.126 2.509 4.841 6.762 5.763 10.554a27.142 27.142 0 0 1-.49 14.377l1.401-.804-3.126-.784.794.794c-.373-2.322 1.332-4.36 3.253-5.41 2.421-1.323 5.282-.98 7.84-.098 5.341 1.804 9.692 5.655 15.425 6.43 1.451.195 1.431-2.088 0-2.274-6.683-.902-11.681-6.478-18.473-7.145-5.223-.51-11.132 3.313-10.201 9.105.101.389.404.693.793.794l3.136.793a1.167 1.167 0 0 0 1.392-.803 29.453 29.453 0 0 0 .715-14.563c-.901-4.41-2.832-9.31-6.291-12.338-3.734-3.283-8.889-3.195-13.554-2.538a34.954 34.954 0 0 0-13.935 5.194c-3.028 1.96-6.86 5.654-5.753 9.692a4.327 4.327 0 0 0 1.196 2.068 2.822 2.822 0 0 0 2.597.117 5.293 5.293 0 0 0 2.94-3.322c1.352-3.655.059-7.585-1.617-10.898a26.713 26.713 0 0 0-7.987-9.349 24.99 24.99 0 0 0-23.648-3.42 27.165 27.165 0 0 0-10.446 6.987 25.34 25.34 0 0 0-3.666 5.145c-1.048 1.96-2.107 4.293-1.862 6.576a4.676 4.676 0 0 0 3.47 4.155c2.195.5 3.704-1.156 4.547-2.94a17.982 17.982 0 0 0 1.048-11.26A20.472 20.472 0 0 0 137.92.35a25.645 25.645 0 0 0-23.382 8.252c-5.998 6.762-8.526 16.18-7.693 25.097.264 2.794.803 5.547 1.342 8.291.18.597.797.946 1.402.794 3.283-.5 3.92-4.44 3.067-7.115-1.068-3.214-4.351-5.086-7.575-5.488a14.18 14.18 0 0 0-9.879 2.744 15.405 15.405 0 0 0-5.88 10.016c-.872 5.096.118 10.33 1.872 15.131.5 1.362 2.695.774 2.195-.608h.02z"/><path fill="#000" d="M655.492 230.117c-2.215-14.817-11.182-27.303-18.757-39.817-7.968-13.22-15.22-26.94-19.865-41.64-4.429-14.054-6.389-29.057-4.194-43.708 2.058-13.77 7.791-26.97 17.767-36.829 9.134-9.016 21.443-15.22 34.408-15.592 12.74-.362 24.804 5.204 33.898 13.907 9.8 9.378 15.739 21.844 17.768 35.211 2.293 15.141-.285 30.801-5.626 45.08s-13.524 27.499-22.432 39.896c-9.359 12.995-19.531 25.529-30.076 37.671a637.981 637.981 0 0 1-7.928 8.947c-.98 1.078.617 2.695 1.607 1.608a576.356 576.356 0 0 0 32.124-38.72c9.448-12.427 18.395-25.382 24.99-39.573 6.596-14.19 10.78-29.615 10.418-45.325-.294-14.268-4.449-28.42-13.24-39.768-7.781-10.025-18.885-17.865-31.487-20.394-12.946-2.557-26.323.902-37.191 8.183a62.34 62.34 0 0 0-24.236 32.409c-4.674 14.092-4.9 29.4-2.234 43.933 2.871 15.445 9.143 30.086 16.66 43.836 3.753 6.909 7.84 13.582 12.015 20.266 3.998 6.478 7.947 13.093 10.613 20.247a53.11 53.11 0 0 1 2.822 10.78c.216 1.45 2.411.833 2.196-.598l-.02-.01z"/><path fill="#F2EFE6" d="M644.506 244.464c-9.094-4.459-19.345 5.831-17.64 15.014 1.284 6.86 8.82 11.848 15.563 10.28 11.446-2.646 13.347-20.991 2.077-25.215"/><path fill="#000" d="M645.084 243.485c-6.115-2.891-12.74-.069-16.552 5.164-3.92 5.429-3.92 12.642.657 17.64 4.243 4.645 11.427 6.409 17.013 3.156 4.41-2.568 6.86-7.625 6.997-12.603.206-5.88-2.823-11.28-8.369-13.436-1.372-.529-1.96 1.676-.608 2.195 8.252 3.205 8.595 15.112 2.568 20.58-3.862 3.519-9.555 3.283-13.72.441a11.357 11.357 0 0 1-4.018-14.435c2.567-5.429 8.957-9.604 14.905-6.811 1.314.627 2.47-1.343 1.147-1.96l-.02.069zm29.341-162.631c-17.512-8.585-37.24 11.221-33.908 28.89 2.47 13.123 16.915 22.795 29.939 19.787 22.021-5.096 25.676-40.386 3.999-48.52"/><path fill="#000" d="M674.994 79.874a21.737 21.737 0 0 0-16.954-.862 29.405 29.405 0 0 0-13.485 10.476 28.1 28.1 0 0 0-5.547 16.376 24.62 24.62 0 0 0 6.674 16.336c7.919 8.654 21.345 11.996 31.713 5.763 8.016-4.812 12.387-14.112 12.74-23.265.353-9.154-3.714-18.571-11.946-23.197a25.924 25.924 0 0 0-3.391-1.568c-1.372-.52-1.96 1.676-.608 2.195 8.076 3.087 12.917 10.78 13.593 19.247.647 8.193-2.205 16.896-8.467 22.413-8.026 7.076-19.747 6.36-28.126.265a23.884 23.884 0 0 1-9.359-13.779 23.321 23.321 0 0 1 2.244-15.563c4.694-9.26 15.17-16.875 25.931-14.249 1.352.323 2.666.79 3.92 1.392 1.313.637 2.469-1.333 1.146-1.96l-.078-.02z"/><path stroke="#F2EFE6" stroke-dasharray="3.1" stroke-width="2.32" d="M497 157.537a33.438 33.438 0 0 1 22.863-15.18 18.914 18.914 0 0 1 10.467.911c7.458 3.254 10.192 12.407 10.78 20.522.539 7.889-.206 16.072-3.803 23.118-3.596 7.046-10.407 12.74-18.277 13.534a6.387 6.387 0 0 1-4.008-.647 5.627 5.627 0 0 1-2.205-3.469c-1.891-7.341 3.989-14.377 10.173-18.738a63.409 63.409 0 0 1 31.81-11.339c3.842-.264 7.938-.117 11.163 1.96 3.714 2.411 5.497 6.909 6.389 11.251 1.274 6.144 1.157 12.848-1.901 18.336-3.058 5.488-9.584 9.29-15.68 7.84a3.6 3.6 0 0 1-2.323-1.392 3.847 3.847 0 0 1 0-3.087c3.342-10.594 16.151-17.101 26.676-13.553 9.908 3.341 15.856 13.465 19.247 23.363s5.214 20.58 10.937 29.292"/><path fill="#3EF194" d="M417.489 250.629c-17.091-4.233-33.183-11.211-47.334-21.913-10.78-8.104-23.746-21.315-37.034-12.916-19.404 12.26-32.438 33.104-45.247 51.636-17.199 24.882-32.124 51.097-46.374 77.753-19.325 36.319-46.06 69.414-80.84 91.434-30.929 19.6-70.383 32.595-106.908 28.518a6.626 6.626 0 0 0-5.204 11.457c9.8 9.153 26.01 16.552 35.77 20.07a726.4 726.4 0 0 0 184.975 40.347c14.867 1.244 29.929 2.028 44.639-.432 83.761-14.023 119.119-102.684 157.075-167.423 23.676-40.425 53.831-73.921 85.73-107.006a5.605 5.605 0 0 0-4.577-9.467c-45.285 4.391-103.978 5.547-134.671-2.058z"/><path fill="#3EF194" d="M417.793 249.531a137.27 137.27 0 0 1-33.065-12.74 116.062 116.062 0 0 1-14.583-9.515c-4.106-3.146-8.046-6.537-12.348-9.428-8.075-5.419-17.179-8.232-25.931-2.617-8.976 5.763-16.601 13.426-23.353 21.619-6.752 8.193-12.848 17.189-18.904 26.039-7.076 10.339-14.014 20.746-20.58 31.428-6.713 10.957-13.113 22.09-19.326 33.32-5.782 10.467-11.201 21.149-17.385 31.36-23.275 38.583-55.674 71.315-97.049 90.033-21.276 9.624-44.58 15.768-68.022 15.68-2.823 0-5.642-.098-8.458-.294-2.322-.167-4.84-.784-7.154-.382a7.78 7.78 0 0 0-6.271 6.625c-.569 4.155 2.234 6.742 5.194 9.153a89.2 89.2 0 0 0 12.828 8.536c8.898 4.958 18.306 8.614 27.9 11.946a709.695 709.695 0 0 0 36.731 11.701 728.937 728.937 0 0 0 75.058 17.473 672.819 672.819 0 0 0 75.94 9.369c12.456.765 24.99.706 37.299-1.558a127.457 127.457 0 0 0 25.882-7.654c32.232-13.426 56.575-39.523 76.038-67.786 20.1-29.185 35.593-61.123 53.439-91.65a435.852 435.852 0 0 1 42.219-59.329c7.683-9.202 15.68-18.169 23.784-26.98 4.077-4.416 8.193-8.803 12.348-13.161 2.078-2.182 4.165-4.364 6.262-6.546 1.421-1.47 2.764-2.833 3.087-4.9a6.86 6.86 0 0 0-4.517-7.468c-2.107-.686-4.469-.127-6.606.069-2.665.248-5.334.48-8.006.695a752.237 752.237 0 0 1-33.467 1.96c-21.423.794-42.993.863-64.347-1.146a170.044 170.044 0 0 1-24.637-3.861c-1.421-.353-2.029 1.842-.608 2.195 17.405 4.263 35.711 5.096 53.557 5.458 21.678.432 43.395-.372 65.023-1.96 5.214-.392 10.408-.882 15.621-1.342 2.235-.196 4.352.264 5.371 2.499 1.431 3.097-1.078 5.204-3.028 7.232-8.027 8.35-15.974 16.778-23.746 25.372a547.83 547.83 0 0 0-43.669 54.165c-21.109 30.321-36.808 63.906-55.86 95.481-17.64 29.204-38.347 58.134-67.188 77.224a128.484 128.484 0 0 1-47.57 19.297c-12.426 2.283-25.097 2.224-37.661 1.411-12.564-.814-25.049-2.107-37.505-3.656a725.62 725.62 0 0 1-145.902-33.81c-9.8-3.381-19.512-6.938-28.675-11.897a89.777 89.777 0 0 1-13.18-8.467c-1.716-1.362-4-2.881-4.832-4.988a5.606 5.606 0 0 1 1.411-6.106c1.774-1.636 3.861-1.391 6.076-1.176 2.793.275 5.606.441 8.418.52a134.14 134.14 0 0 0 16.602-.569 164.928 164.928 0 0 0 32.085-6.399c41.846-12.642 77.42-39.357 103.968-73.755a277.554 277.554 0 0 0 18.012-26.46c5.939-9.8 11.153-20.109 16.709-30.174 12.035-21.815 24.882-43.12 38.994-63.631 11.986-17.435 23.883-36.153 41.788-48.148 4.625-3.097 9.368-4.488 14.856-2.94 4.9 1.392 9.281 4.381 13.319 7.419 8.643 6.478 16.816 13.073 26.46 18.051a141.836 141.836 0 0 0 30.527 11.31c1.44.401 2.048-1.794.627-2.147z"/><path fill="#000" d="M417.793 249.531a137.27 137.27 0 0 1-33.065-12.74 116.062 116.062 0 0 1-14.583-9.515c-4.106-3.146-8.046-6.537-12.348-9.428-8.075-5.419-17.179-8.232-25.931-2.617-8.976 5.763-16.601 13.426-23.353 21.619-6.752 8.193-12.848 17.189-18.904 26.039-7.076 10.339-14.014 20.746-20.58 31.428-6.713 10.957-13.113 22.09-19.326 33.32-5.782 10.467-11.201 21.149-17.385 31.36-23.275 38.583-55.674 71.315-97.049 90.033-21.276 9.624-44.58 15.768-68.022 15.68-2.823 0-5.642-.098-8.458-.294-2.322-.167-4.84-.784-7.154-.382a7.78 7.78 0 0 0-6.271 6.625c-.569 4.155 2.234 6.742 5.194 9.153a89.2 89.2 0 0 0 12.828 8.536c8.898 4.958 18.306 8.614 27.9 11.946a709.695 709.695 0 0 0 36.731 11.701 728.937 728.937 0 0 0 75.058 17.473 672.819 672.819 0 0 0 75.94 9.369c12.456.765 24.99.706 37.299-1.558a127.457 127.457 0 0 0 25.882-7.654c32.232-13.426 56.575-39.523 76.038-67.786 20.1-29.185 35.593-61.123 53.439-91.65a435.852 435.852 0 0 1 42.219-59.329c7.683-9.202 15.68-18.169 23.784-26.98 4.077-4.416 8.193-8.803 12.348-13.161 2.078-2.182 4.165-4.364 6.262-6.546 1.421-1.47 2.764-2.833 3.087-4.9a6.86 6.86 0 0 0-4.517-7.468c-2.107-.686-4.469-.127-6.606.069-2.665.248-5.334.48-8.006.695a752.237 752.237 0 0 1-33.467 1.96c-21.423.794-42.993.863-64.347-1.146a170.044 170.044 0 0 1-24.637-3.861c-1.421-.353-2.029 1.842-.608 2.195 17.405 4.263 35.711 5.096 53.557 5.458 21.678.432 43.395-.372 65.023-1.96 5.214-.392 10.408-.882 15.621-1.342 2.235-.196 4.352.264 5.371 2.499 1.431 3.097-1.078 5.204-3.028 7.232-8.027 8.35-15.974 16.778-23.746 25.372a547.83 547.83 0 0 0-43.669 54.165c-21.109 30.321-36.808 63.906-55.86 95.481-17.64 29.204-38.347 58.134-67.188 77.224a128.484 128.484 0 0 1-47.57 19.297c-12.426 2.283-25.097 2.224-37.661 1.411-12.564-.814-25.049-2.107-37.505-3.656a725.62 725.62 0 0 1-145.902-33.81c-9.8-3.381-19.512-6.938-28.675-11.897a89.777 89.777 0 0 1-13.18-8.467c-1.716-1.362-4-2.881-4.832-4.988a5.606 5.606 0 0 1 1.411-6.106c1.774-1.636 3.861-1.391 6.076-1.176 2.793.275 5.606.441 8.418.52a134.14 134.14 0 0 0 16.602-.569 164.928 164.928 0 0 0 32.085-6.399c41.846-12.642 77.42-39.357 103.968-73.755a277.554 277.554 0 0 0 18.012-26.46c5.939-9.8 11.153-20.109 16.709-30.174 12.035-21.815 24.882-43.12 38.994-63.631 11.986-17.435 23.883-36.153 41.788-48.148 4.625-3.097 9.368-4.488 14.856-2.94 4.9 1.392 9.281 4.381 13.319 7.419 8.643 6.478 16.816 13.073 26.46 18.051a141.836 141.836 0 0 0 30.527 11.31c1.44.401 2.048-1.794.627-2.147z"/><path fill="#000" d="M417.793 249.531a137.27 137.27 0 0 1-33.065-12.74 116.062 116.062 0 0 1-14.583-9.515c-4.106-3.146-8.046-6.537-12.348-9.428-8.075-5.419-17.179-8.232-25.931-2.617-8.976 5.763-16.601 13.426-23.353 21.619-6.752 8.193-12.848 17.189-18.904 26.039-7.076 10.339-14.014 20.746-20.58 31.428-6.713 10.957-13.113 22.09-19.326 33.32-5.782 10.467-11.201 21.149-17.385 31.36-23.275 38.583-55.674 71.315-97.049 90.033-21.276 9.624-44.58 15.768-68.022 15.68-2.823 0-5.642-.098-8.458-.294-2.322-.167-4.84-.784-7.154-.382a7.78 7.78 0 0 0-6.271 6.625c-.569 4.155 2.234 6.742 5.194 9.153a89.2 89.2 0 0 0 12.828 8.536c8.898 4.958 18.306 8.614 27.9 11.946a709.695 709.695 0 0 0 36.731 11.701 728.937 728.937 0 0 0 75.058 17.473 672.819 672.819 0 0 0 75.94 9.369c12.456.765 24.99.706 37.299-1.558a127.457 127.457 0 0 0 25.882-7.654c32.232-13.426 56.575-39.523 76.038-67.786 20.1-29.185 35.593-61.123 53.439-91.65a435.852 435.852 0 0 1 42.219-59.329c7.683-9.202 15.68-18.169 23.784-26.98 4.077-4.416 8.193-8.803 12.348-13.161 2.078-2.182 4.165-4.364 6.262-6.546 1.421-1.47 2.764-2.833 3.087-4.9a6.86 6.86 0 0 0-4.517-7.468c-2.107-.686-4.469-.127-6.606.069-2.665.248-5.334.48-8.006.695a752.237 752.237 0 0 1-33.467 1.96c-21.423.794-42.993.863-64.347-1.146a170.044 170.044 0 0 1-24.637-3.861c-1.421-.353-2.029 1.842-.608 2.195 17.405 4.263 35.711 5.096 53.557 5.458 21.678.432 43.395-.372 65.023-1.96 5.214-.392 10.408-.882 15.621-1.342 2.235-.196 4.352.264 5.371 2.499 1.431 3.097-1.078 5.204-3.028 7.232-8.027 8.35-15.974 16.778-23.746 25.372a547.83 547.83 0 0 0-43.669 54.165c-21.109 30.321-36.808 63.906-55.86 95.481-17.64 29.204-38.347 58.134-67.188 77.224a128.484 128.484 0 0 1-47.57 19.297c-12.426 2.283-25.097 2.224-37.661 1.411-12.564-.814-25.049-2.107-37.505-3.656a725.62 725.62 0 0 1-145.902-33.81c-9.8-3.381-19.512-6.938-28.675-11.897a89.777 89.777 0 0 1-13.18-8.467c-1.716-1.362-4-2.881-4.832-4.988a5.606 5.606 0 0 1 1.411-6.106c1.774-1.636 3.861-1.391 6.076-1.176 2.793.275 5.606.441 8.418.52a134.14 134.14 0 0 0 16.602-.569 164.928 164.928 0 0 0 32.085-6.399c41.846-12.642 77.42-39.357 103.968-73.755a277.554 277.554 0 0 0 18.012-26.46c5.939-9.8 11.153-20.109 16.709-30.174 12.035-21.815 24.882-43.12 38.994-63.631 11.986-17.435 23.883-36.153 41.788-48.148 4.625-3.097 9.368-4.488 14.856-2.94 4.9 1.392 9.281 4.381 13.319 7.419 8.643 6.478 16.816 13.073 26.46 18.051a141.836 141.836 0 0 0 30.527 11.31c1.44.401 2.048-1.794.627-2.147z"/><path fill="#000" d="M509.001 271.454a456.57 456.57 0 0 1-60.201 1.784c-17.64-.637-35.476-2.147-52.401-7.625a90.75 90.75 0 0 1-28.126-14.7c-6.536-5.066-14.876-11.975-23.765-9.075-4.243 1.382-8.075 4.685-11.397 7.576a91.172 91.172 0 0 0-10.271 10.672c-6.232 7.507-11.593 15.68-17.12 23.716-22.138 32.164-40.249 66.924-62.995 98.686-5.448 7.605-11.152 15.033-17.326 22.06-6.772 7.732-14.2 14.984-21.599 22.167-12.191 11.76-24.843 23.324-38.661 33.222-8.438 6.047-17.415 11.574-27.146 15.288a85.2 85.2 0 0 1-20.58 4.9c-1.607.196-3.244.255-4.841.5-2.686.431-4.136 3.832-1.627 5.616 1.646 1.185 4.38 1.401 6.321 1.96 2.724.754 5.439 1.528 8.153 2.303 5.312 1.509 10.624 3.047 15.935 4.576 20.58 5.88 41.219 11.995 62.22 16.366a461.319 461.319 0 0 0 64.367 9.085c10.884.741 21.804.777 32.693.108 8.878-.588 17.953-1.519 26.509-4.067 28.175-8.389 49-32.037 65.17-55.429 17.64-25.549 31.213-53.557 45.707-80.938a352.82 352.82 0 0 1 27.303-44.306c12.857-17.483 27.381-33.663 42.326-49.363 1.793-1.891 3.636-3.743 5.409-5.645a5.77 5.77 0 0 0 1.784-4.086 5.467 5.467 0 0 0-5.88-5.341c-1.46.059-1.46 2.342 0 2.273a3.212 3.212 0 0 1 3.567 3.283c-.088 2.274-3.361 4.597-4.812 6.106a925.847 925.847 0 0 0-10.691 11.348c-7.184 7.772-14.21 15.68-20.933 23.873a331.023 331.023 0 0 0-33.173 48.02c-14.387 25.637-26.754 52.342-42.14 77.42-14.994 24.647-33.32 50.264-59.31 64.337-14.621 7.918-30.85 9.996-47.285 10.555-21.785.784-43.61-1.5-65.101-4.9a560.494 560.494 0 0 1-59.908-13.172c-10.26-2.812-20.482-5.762-30.703-8.712a3712.074 3712.074 0 0 0-15.866-4.537l-6.743-1.901c-.793-.216-3.439-.49-3.831-1.284-.392-.794.509-1.166 1.176-1.294 3.155-.598 6.448-.676 9.633-1.195a83.775 83.775 0 0 0 9.908-2.254 100.534 100.534 0 0 0 24.304-11.29c11.76-7.321 22.54-16.17 32.908-25.382 7.389-6.576 14.543-13.416 21.56-20.394 6.762-6.732 13.436-13.534 19.532-20.874 24.5-29.478 42.924-63.465 63.18-95.824 4.694-7.497 9.506-14.906 14.524-22.187 5.498-7.997 10.848-16.131 17.199-23.52a84 84 0 0 1 10.27-10.183c3.695-3.038 7.919-6.468 12.956-6.33 4.792.137 9.163 2.94 12.936 5.615 3.969 2.842 7.673 6.037 11.76 8.683 14.935 9.623 32.751 14.004 50.215 16.023 18.934 2.195 38.132 2.411 57.163 1.774a456.57 456.57 0 0 0 27.715-1.784c1.48-.167 1.489-2.45.029-2.303z"/><path fill="#000" d="M386.541 368.111c-4.42-6.037-11.006-10.888-20.002-13.671-32.673-10.133-78.753 6.008-91.758 39.2-10.838 27.666 11.123 45.404 36.26 50.421 20.835 4.155 44.238 1.353 61.593-11.623 20.541-15.346 27.666-45.56 13.907-64.327z"/><path fill="#000" d="M387.53 367.533c-7.242-9.8-18.541-14.602-30.301-16.376a83.868 83.868 0 0 0-32.046 1.637 85.237 85.237 0 0 0-29.694 13.426c-8.575 6.193-15.945 14.249-20.424 23.902-4.664 10.015-6.056 21.472-.852 31.566 4.851 9.408 14.082 15.738 23.657 19.6 11.633 4.753 24.765 6.321 37.24 5.448 13.387-.98 26.725-5.017 37.622-13.004a54.608 54.608 0 0 0 19.679-27.666c3.234-10.348 3.332-21.863-1.059-31.899a36.073 36.073 0 0 0-3.832-6.673c-.852-1.167-2.832 0-1.96 1.156 12.907 17.767 6.498 43.296-8.065 58.016-17.885 18.081-47.373 21.56-71.03 15.112-9.849-2.676-19.6-7.488-26.333-15.386a29.6 29.6 0 0 1-6.37-12.574 32.086 32.086 0 0 1 .774-15.993c5.88-20.159 24.392-34.134 43.561-40.641a85.367 85.367 0 0 1 30.9-4.577c10.78.451 22.373 3.019 30.879 10.055a34.625 34.625 0 0 1 5.684 5.988c.863 1.205 2.842.069 1.97-1.117zm-8.222-109.24a115.327 115.327 0 0 1-13.455-9.31c-3.793-2.94-7.84-5.792-12.456-7.154a15.494 15.494 0 0 0-13.377 2.303 71.143 71.143 0 0 0-11.907 10.065c-4.1 4.344-7.901 8.96-11.378 13.818a1.147 1.147 0 0 0 .686 1.666 80.014 80.014 0 0 0 49.343-3.048 77.095 77.095 0 0 0 12.554-6.37c1.235-.784.088-2.754-1.157-1.96a77.12 77.12 0 0 1-46.422 11.456 74.543 74.543 0 0 1-13.72-2.264l.676 1.676c5.939-8.114 12.524-16.003 20.766-21.893a20.424 20.424 0 0 1 6.4-3.479 12.566 12.566 0 0 1 6.242.049c4.459 1.117 8.36 3.92 11.976 6.634a126.49 126.49 0 0 0 14.073 9.8c1.283.696 2.43-1.274 1.156-1.989zm129.693 13.161c-12.642 1.225-25.342 1.852-38.043 2.019-.51.005-.955.344-1.098.833a50.082 50.082 0 0 0 8.124 42.983 1.159 1.159 0 0 0 1.794.225c5.968-7.144 12.142-14.102 18.453-20.952a955.675 955.675 0 0 1 9.673-10.31c1.578-1.646 3.155-3.303 4.743-4.9a6.445 6.445 0 0 0 2.185-4.008 5.48 5.48 0 0 0-5.88-5.88c-1.45.088-1.46 2.371 0 2.273 2.47-.156 4.518 2.362 3.146 4.685a10.673 10.673 0 0 1-1.597 1.793l-2.293 2.391a684.282 684.282 0 0 0-4.234 4.45c-5.655 5.968-11.241 12.024-16.66 18.188a491.693 491.693 0 0 0-9.173 10.673l1.794.235a47.902 47.902 0 0 1-7.899-41.229l-1.098.833c12.74-.166 25.402-.784 38.044-2.019 1.47-.147 1.48-2.43.019-2.283zM336.1 495.354a91.058 91.058 0 0 0-42.532 23.648 1.146 1.146 0 0 0 .804 1.96c10.221-.382 20.766-1.157 30.693-3.803a83.592 83.592 0 0 0 24.5-11.27 115.166 115.166 0 0 0 12.74-9.8 1.135 1.135 0 0 0-.5-1.901 67.916 67.916 0 0 0-25.705 1.166c-1.431.324-.833 2.519.598 2.196a64.977 64.977 0 0 1 24.5-1.206l-.5-1.901a101.865 101.865 0 0 1-22.403 15.298 83.567 83.567 0 0 1-26.362 7.516c-5.88.745-11.701 1.186-17.581 1.412l.804 1.96a88.808 88.808 0 0 1 41.561-23.089c1.431-.324.824-2.519-.617-2.186zm-224.165-8.594c16.101 4.42 32.105 9.193 48.177 13.72a1.156 1.156 0 0 0 1.401-.794c3.224-11.534 4.292-24.5 1.313-36.26a1.146 1.146 0 0 0-1.666-.686c-8.104 5.479-16.66 10.379-25.98 13.534a91.998 91.998 0 0 1-20.433 4.185c-1.773.176-3.831.059-4.762 1.901a3.136 3.136 0 0 0 1.96 4.39c1.381.471 1.96-1.724.597-2.195a.833.833 0 0 1-.47-1.244c.333-.539 1.245-.432 1.793-.49a148.91 148.91 0 0 0 4.361-.471c3.038-.372 6.057-.852 9.046-1.499a86.493 86.493 0 0 0 20.727-7.576 137.065 137.065 0 0 0 14.318-8.565l-1.676-.676a60.878 60.878 0 0 1 1.489 17.64 77.033 77.033 0 0 1-2.802 17.405l1.401-.794c-16.072-4.528-32.085-9.3-48.187-13.72a1.139 1.139 0 0 0-.607 2.195zm86.22-257.024a45.13 45.13 0 0 1 14.7 3.528 1.175 1.175 0 0 0 1.558-.412 1.146 1.146 0 0 0-.411-1.558 48.749 48.749 0 0 0-15.817-3.842c-1.461-.098-1.461 2.186 0 2.284h-.03zm72.442-1.186a25.309 25.309 0 0 1 8.339-4.645 1.146 1.146 0 0 0-.607-2.205 28.205 28.205 0 0 0-9.34 5.243 1.137 1.137 0 0 0 1.608 1.607z"/><path fill="#F2EFE6" d="m387.736 283.607 9.8 46.697c.304 1.43 2.499.823 2.205-.608l-9.8-46.697c-.304-1.431-2.499-.823-2.195.608h-.01zm13.24 2.606 8.526 34.741c.353 1.421 2.548.813 2.195-.608l-8.526-34.741c-.353-1.421-2.548-.813-2.195.608zm-184.71 158.466 15.954 46.668c.47 1.382 2.675.794 2.195-.598L218.5 444.072c-.47-1.372-2.675-.784-2.195.607h-.039zm13.994-13.034a282.666 282.666 0 0 1 18.228 52.048 272.23 272.23 0 0 1 3.254 15.121c.264 1.441 2.469.833 2.195-.598a283.5 283.5 0 0 0-15.455-53.243 298.607 298.607 0 0 0-6.262-14.475c-.617-1.332-2.577-.176-1.96 1.147zM85.857 486.24a1.137 1.137 0 1 0 0-2.273 1.137 1.137 0 0 0 0 2.273zm7.625-10.162a1.146 1.146 0 0 0 0-2.283 1.147 1.147 0 0 0 0 2.283zm0 17.797a1.146 1.146 0 0 0 0-2.283 1.146 1.146 0 0 0 0 2.283zm336.482-161.887h1.696a1.16 1.16 0 0 0 .803-.333c.217-.211.341-.5.343-.803a1.156 1.156 0 0 0-1.146-1.147h-1.696c-.3.005-.587.124-.803.333a1.21 1.21 0 0 0-.333.814c-.001.301.119.591.333.803.216.209.503.328.803.333zm-1.695 17.797a1.137 1.137 0 1 0 0-2.273 1.137 1.137 0 0 0 0 2.273zm12.691-22.04a1.137 1.137 0 1 0 0-2.274 1.137 1.137 0 0 0 0 2.274zm80.36-64.425a52.227 52.227 0 0 1 2.362 16.66 1.146 1.146 0 0 0 2.283 0 54.644 54.644 0 0 0-2.45-17.277c-.441-1.392-2.636-.804-2.195.608v.009zm10.986-2.529a45.34 45.34 0 0 1 2.479 14.122 1.137 1.137 0 1 0 2.274 0 46.84 46.84 0 0 0-2.558-14.7c-.48-1.372-2.676-.784-2.195.608v-.03zm-297.087-17.688c2.94-1.902 6.399-2.568 9.8-3.068 1.96-.287 3.92-.526 5.88-.715.98-.098 1.96-.186 2.94-.255.371-.046.743-.072 1.117-.078a1.49 1.49 0 0 1 .549 0c-.226-.236-.177-.461.137-.667l1.401.794-.313.715c1.44-.215.823-2.41-.608-2.195a1.636 1.636 0 0 0-1.274 2.088c.18.596.797.946 1.402.793a1.753 1.753 0 0 0 1.391-1.783 2.048 2.048 0 0 0-1.538-1.96 9.784 9.784 0 0 0-3.509.059 115.54 115.54 0 0 0-4.135.421c-4.9.578-10.143 1.088-14.377 3.822-1.225.794-.078 2.773 1.156 1.96l-.019.069zm26.989-4.959a41.945 41.945 0 0 1 1.578-.323l.735-.127.372-.049h.245a34.181 34.181 0 0 1 3.156-.236 1.137 1.137 0 1 0 0-2.273 33.548 33.548 0 0 0-6.694.852 1.14 1.14 0 0 0 .608 2.196v-.04zm2.911 3.616a1.137 1.137 0 1 0 0-2.274 1.137 1.137 0 0 0 0 2.274zm15.043 3.734a10.777 10.777 0 0 1 11.985 1.323c1.098.98 2.715-.647 1.607-1.617a13.08 13.08 0 0 0-14.7-1.666c-1.284.705-.137 2.665 1.147 1.96h-.039zm9.32 5.762a1.137 1.137 0 1 0-.001-2.273 1.137 1.137 0 0 0 .001 2.273zm46.932-30.801c-15.729 6.977-26.01 21.462-34.947 35.544-.647.98-1.294 2.039-1.96 3.058a8.828 8.828 0 0 0-1.441 2.94 2.941 2.941 0 0 0 2.725 3.597 1.158 1.158 0 0 0 1.097-1.451c-.284-1.45-1.764-1.823-3.048-1.48-1.724.461-2.94 2.029-4.145 3.264a79.45 79.45 0 0 0-8.212 9.996c-2.686 3.92-5.028 7.987-7.419 12.054l-7.33 12.583-8.34 14.19a1.138 1.138 0 0 0 1.96 1.147l13.004-22.197c4.185-7.125 8.134-14.494 13.348-20.943a76.85 76.85 0 0 1 4.175-4.762 73.154 73.154 0 0 1 2.303-2.323 3.471 3.471 0 0 1 1.029-.735c.117-.049.255-.069.382-.118.314-.127.157.089.127-.078l1.098-1.421c-1.568 0 1.245-4.038 1.529-4.469.98-1.597 2.019-3.195 3.038-4.782 2.136-3.293 4.331-6.547 6.674-9.692a78.563 78.563 0 0 1 15.111-15.798 51.97 51.97 0 0 1 10.388-6.174c1.343-.598.186-2.558-1.146-1.96v.01zm-77.95 105.31v.559a.993.993 0 0 0 .098.441.982.982 0 0 0 .608.607.96.96 0 0 0 .441.098l.294-.049c.192-.049.367-.147.51-.284l.176-.235c.101-.176.155-.375.157-.578v-.559a.993.993 0 0 0-.098-.441.891.891 0 0 0-.235-.362.757.757 0 0 0-.373-.236.739.739 0 0 0-.431-.098h-.304c-.194.049-.37.151-.509.294l-.177.226a1.185 1.185 0 0 0-.157.578v.039zm-1.969 10.173a1.137 1.137 0 1 0 0-2.274 1.137 1.137 0 0 0 0 2.274zm-124.666-193.07c-.275 3.832-.657 8.046.304 11.809a9.951 9.951 0 0 0 2.214 4.234c.775.833 2.529 2.401 3.744 1.695a1.56 1.56 0 0 0-.333-2.764c-1.49-.519-2.529 1.118-2.548 2.411 0 1.627 1.137 3.028 2.293 4.028 1.333 1.156 2.764 2.215 4.175 3.263a30.464 30.464 0 0 0 11.162 5.616c1.421.323 2.038-1.872.598-2.195a26.314 26.314 0 0 1-9.095-4.293c-1.43-.98-2.802-2.048-4.155-3.116a19.564 19.564 0 0 1-1.676-1.421 4.644 4.644 0 0 1-.774-.98c-.078-.137-.98-2.676-1.264-1.892l.529-.686-.176.089.872-.108c-2.548-1.049-3.499-3.999-3.734-6.507a55.456 55.456 0 0 1 .118-9.203c.108-1.46-2.176-1.45-2.284 0l.03.02zm194.746-9.202a40.713 40.713 0 0 1 8.898 14.014 42.124 42.124 0 0 1 2.107 7.84c.225 1.343 1.313 5.959-.764 6.409l1.107 1.911c.794-.725 1.96 1.49 2.146 1.96.401 1.1.606 2.26.608 3.43.018 2.386-.8 4.702-2.313 6.547-.931 1.127.666 2.744 1.607 1.617a12.66 12.66 0 0 0 2.793-10.271 7.834 7.834 0 0 0-2.166-4.615c-1.264-1.137-2.94-1.529-4.292-.324-.892.804.069 2.137 1.107 1.911 2.754-.607 2.94-3.871 2.764-6.154a42.515 42.515 0 0 0-1.96-9.428A43.57 43.57 0 0 0 328.201 132c-.98-1.048-2.636.559-1.607 1.617l-.019.049zm-205.409 28.332.147-.128c-.098.089-.107.089 0 0l.304-.225.647-.402.588-.304.343-.156.167-.069a9.588 9.588 0 0 1 1.372-.402l.372-.068h.167c.249-.04.502-.06.754-.059a1.147 1.147 0 0 0 0-2.284 10.93 10.93 0 0 0-6.507 2.519 1.157 1.157 0 0 0 0 1.617c.45.428 1.157.428 1.607 0l.039-.039zm1.353 16.16a17.926 17.926 0 0 1 10.212-7.35 1.138 1.138 0 1 0-.608-2.195 20.35 20.35 0 0 0-11.574 8.398 1.138 1.138 0 0 0 1.96 1.147h.01zm15.082-4.998a1.146 1.146 0 0 0 0-2.283 1.146 1.146 0 0 0 0 2.283zm-1.597 6.86a1.147 1.147 0 0 0 0-2.284 1.147 1.147 0 0 0 0 2.284z"/><path fill="#F2EFE6" d="M327.682 148.464a7.02 7.02 0 0 1 .637-.196l.333-.059h-.059.755c.221-.034.446-.034.666 0-.166 0-.176 0 0 0h.167l.323.069c.19.045.376.101.559.167.069 0 .421.117.118 0 .106.037.208.086.303.147.2.099.393.21.579.333a1.147 1.147 0 0 0 1.558-.402 1.156 1.156 0 0 0-.412-1.558 6.996 6.996 0 0 0-6.086-.755 1.139 1.139 0 0 0 .608 2.195l-.049.059zm-5.792 10.496a27.59 27.59 0 0 1 10.388 4.214 1.137 1.137 0 0 0 1.146-1.96 29.16 29.16 0 0 0-10.936-4.439 1.137 1.137 0 1 0-.598 2.195v-.01zm5.057 12.24a1.137 1.137 0 1 0 0-2.273 1.137 1.137 0 0 0 0 2.273zM209.18 254.569c1.96-4.959 8.046-6.155 12.662-7.056 1.431-.285.823-2.48-.608-2.196-5.605 1.098-11.936 2.784-14.249 8.644-.163.606.191 1.23.794 1.401a1.165 1.165 0 0 0 1.401-.793zm-2.685 5.095a1.146 1.146 0 0 0 0-2.283 1.147 1.147 0 0 0 0 2.283zm-1.137 5.087a1.147 1.147 0 0 0 0-2.283 1.146 1.146 0 0 0 0 2.283zm83.633-6.782a1.147 1.147 0 0 0 0-2.283 1.146 1.146 0 0 0 0 2.283z"/><path fill="#3EF194" d="M180.78 237.487h.48c.461.008.877-.274 1.039-.706a.974.974 0 0 0 .098-.441v-.294a1.265 1.265 0 0 0-.294-.509l-.235-.177a1.172 1.172 0 0 0-.569-.157h-.431a.908.908 0 0 0-.431.098 1.18 1.18 0 0 0-.706 1.039v.304c.057.191.158.365.294.51l.236.176c.172.1.368.155.568.157h-.049zm10.594-1.695a1.146 1.146 0 0 0 0-2.283 1.146 1.146 0 0 0 0 2.283zm-3.813 6.781a1.146 1.146 0 0 0 0-2.283 1.147 1.147 0 0 0 0 2.283zm105.948-16.111h.451a.773.773 0 0 0 .441-.098 1.04 1.04 0 0 0 .598-.598.77.77 0 0 0 .098-.441v-.303a1.045 1.045 0 0 0-.294-.5l-.226-.177a1.087 1.087 0 0 0-.578-.156h-.421a.845.845 0 0 0-.441.098.884.884 0 0 0-.363.235.803.803 0 0 0-.235.362.847.847 0 0 0-.098.441v.304a.977.977 0 0 0 .294.5l.225.176c.175.106.375.16.579.157h-.03zm7.624.853a1.147 1.147 0 0 0 0-2.284 1.147 1.147 0 0 0 0 2.284zm-1.293 4.234a1.137 1.137 0 1 0 0-2.274 1.137 1.137 0 0 0 0 2.274zm-164.768 63.435a26.906 26.906 0 0 0 17.229 11.965c1.431.285 2.038-1.911.607-2.205a24.59 24.59 0 0 1-15.866-10.907c-.774-1.235-2.754-.098-1.96 1.147h-.01zm-10.711-1.284a36.155 36.155 0 0 0 20.933 17.131c1.401.441 2.009-1.764.608-2.195a33.772 33.772 0 0 1-19.6-16.082c-.706-1.284-2.676-.137-1.96 1.146h.019zm17.326-5.096a21.62 21.62 0 0 0 9.663 9.408 1.175 1.175 0 0 0 1.558-.412 1.146 1.146 0 0 0-.401-1.558 19.59 19.59 0 0 1-8.82-8.585 1.137 1.137 0 1 0-1.96 1.147h-.04z"/><path fill="#3EF194" d="m131.133 303.236 18.679-16.072c1.117-.98-.5-2.558-1.607-1.608l-18.679 16.063c-1.117.98.5 2.567 1.607 1.617zm7.811 6.526a222.75 222.75 0 0 1 16.738-16.729c1.098-.98-.519-2.587-1.607-1.617a226.566 226.566 0 0 0-16.738 16.729c-.98 1.088.627 2.705 1.607 1.617zm9.741 3.851a83.03 83.03 0 0 1 11.319-13.72c1.048-.98-.569-2.636-1.617-1.607a85.117 85.117 0 0 0-11.662 14.171c-.814 1.235 1.166 2.371 1.96 1.156zm20.237-7.055a1.137 1.137 0 1 0 0-2.274 1.137 1.137 0 0 0 0 2.274zm0 7.203a1.137 1.137 0 1 0 0-2.274 1.137 1.137 0 0 0 0 2.274zM22.294 330.636c-5.174-14.582-2.028-31.487 7.419-43.649a42.849 42.849 0 0 1 9.506-9.026c1.195-.833.059-2.803-1.147-1.96-13.396 9.242-21.119 25.539-20.472 41.768a45.192 45.192 0 0 0 2.548 13.475c.48 1.372 2.685.774 2.195-.608h-.049zM3.615 310.262a28.607 28.607 0 0 1 4.46-22.021c.832-1.205-1.137-2.352-1.96-1.146A30.84 30.84 0 0 0 1.42 310.87c.304 1.43 2.5.823 2.195-.608zm17.542-180.947c-12.044 21.373-16.385 49.421-3.92 71.618 1.441 2.587 3.117 5.321 5.714 6.86a9.034 9.034 0 0 0 7.948.529c6.105-2.362 8.369-8.732 9.486-14.7.46-2.45 1.108-5.478-.598-7.605-1.705-2.126-4.615-1.842-6.713-.401-4.223 2.891-6.213 8.927-6.948 13.778-1.725 11.496 2.999 23.824 12.74 30.38 1.215.824 2.362-1.156 1.147-1.96-7.595-5.135-11.868-14.249-11.986-23.314a27.069 27.069 0 0 1 3.068-13.073c.98-1.96 2.832-4.684 5.311-4.753 2.94-.069 2.176 4.165 1.852 5.88-.98 5.272-2.685 11.574-8.3 13.593a6.743 6.743 0 0 1-7.134-1.392 24.127 24.127 0 0 1-4.548-6.86c-5.008-9.8-6.752-20.874-6.066-31.752a84.47 84.47 0 0 1 10.947-35.839 1.147 1.147 0 0 0-1.96-1.156l-.04.167zM85.74 90.987a125.359 125.359 0 0 0 7.976 46.207c.51 1.363 2.715.775 2.196-.607a123.48 123.48 0 0 1-7.9-45.6 1.137 1.137 0 1 0-2.273 0zm69.423-11.025a286.868 286.868 0 0 0 5.831 43.542c.303 1.44 2.499.833 2.195-.598a284.149 284.149 0 0 1-5.753-42.944c-.078-1.46-2.362-1.47-2.273 0zm64.023-19.502-1.47 70.707-.422 19.992a1.147 1.147 0 0 0 2.284 0l1.47-70.707.392-19.992a1.147 1.147 0 0 0-2.284 0h.03zm57.134 49.981v3.39a1.137 1.137 0 1 0 2.273 0v-3.39a1.146 1.146 0 0 0-1.136-1.137 1.155 1.155 0 0 0-1.137 1.137zM393.312 96.72c3.126-3.204 7.164-6.38 11.927-5.742a6.858 6.858 0 0 1 5.066 3.116 10.826 10.826 0 0 1 1.196 6.321 38.552 38.552 0 0 1-3.528 13.122 46.128 46.128 0 0 1-7.379 11.603c-3.283 3.744-7.723 8.095-13.132 7.38l1.136 1.136c0-10.564 13.916-14.327 22.256-11.76a11.761 11.761 0 0 1 8.154 9.428c.901 4.743-.49 9.506-2.656 13.72a75.045 75.045 0 0 1-4.518 7.409c-1.127 1.695-3.587 5.39-6.066 4.077-1.303-.686-2.45 1.283-1.156 1.96 5.399 2.842 9.604-5.332 11.76-8.909 3.018-4.9 5.527-10.525 5.115-16.444-.362-5.174-2.861-10.153-7.663-12.495-4.989-2.421-11.251-2.205-16.425-.5-5.959 1.96-11.123 6.929-11.104 13.544a1.168 1.168 0 0 0 1.137 1.137c5.312.705 9.937-2.94 13.387-6.566a47.75 47.75 0 0 0 9.006-13.338c3.254-7.193 8.32-23.099-3.116-25.921-5.88-1.45-11.123 2.146-15.033 6.154-.98 1.049.588 2.666 1.607 1.617l.029-.049zm117.277 270.294c-12.162 16.405-20.394 35.28-27.577 54.263-2.048 5.429-4.018 10.897-5.988 16.356-.5 1.382 1.696 1.96 2.195.608 6.86-19.032 13.799-38.22 23.971-55.782a152.591 152.591 0 0 1 9.369-14.279c.872-1.176-1.098-2.312-1.96-1.146l-.01-.02zm-3.351 55.948 6.664-11.926c.715-1.284-1.255-2.431-1.96-1.157l-6.655 11.937c-.715 1.283 1.245 2.43 1.96 1.146h-.009zm-183.643-43.845a18.208 18.208 0 0 0-15.915 9.094c-1.656 2.94-2.636 6.674-1.588 9.977 1.049 3.302 4.028 5.096 7.125 6.301 3.528 1.372 7.477 2.734 11.299 1.96 3.822-.774 6.321-3.822 9.291-5.88a40.057 40.057 0 0 1 10.603-5.429c3.685-1.225 8.144-1.96 11.76-.157 3.068 1.568 5.645 5.419 4.136 8.889-1.715 3.92-6.939 5.762-10.878 6.007-1.46.088-1.47 2.362 0 2.274 6.184-.373 14.925-4.548 13.416-12.074a10.663 10.663 0 0 0-5.684-7.144c-3.42-1.676-7.409-1.529-11.045-.657a38.917 38.917 0 0 0-10.78 4.557 44.327 44.327 0 0 0-4.821 3.371 29.954 29.954 0 0 1-4.42 3.274c-3.753 2.028-8.075.49-11.76-.892a12.572 12.572 0 0 1-4.596-2.568 6.429 6.429 0 0 1-1.794-4.9c.206-7.84 8.223-13.72 15.68-13.632a1.137 1.137 0 1 0 0-2.273l-.029-.098z"/><path fill="#3EF194" d="m298.86 387.016 6.429 4.116a1.138 1.138 0 0 0 1.156-1.96l-6.438-4.126a1.138 1.138 0 0 0-1.147 1.96v.01zm63.161 19.815a7.683 7.683 0 0 0 6.811.98 1.139 1.139 0 1 0-.608-2.195c-.245.078-.48.147-.725.206l-.372.068h-.167a6.322 6.322 0 0 1-.754 0h-.569.069a8.697 8.697 0 0 1-1.402-.372c-.127-.049-.117-.049 0 0l-.176-.078-.333-.167c-.226-.127-.431-.265-.637-.402a1.135 1.135 0 0 0-1.558.402 1.165 1.165 0 0 0 .411 1.558h.01z"/><path fill="#F2EFE6" d="M649.7 61.087c-8.634 5.576-16.474 12.613-22.001 21.355-5.694 9.016-8.82 19.962-7.409 30.634.294 2.264.98 4.969 3.215 6.047 1.783.853 4.351.431 5.184-1.539a1.157 1.157 0 0 0-1.284-1.666c-8.173 2.156-8.888 12.74-8.34 19.6.784 9.8 4.352 19.071 8.742 27.774 2.548 5.047 5.4 9.937 8.261 14.807a1.137 1.137 0 0 0 1.96-1.146c-4.674-7.948-9.359-15.984-12.651-24.618a67.029 67.029 0 0 1-3.577-12.916 35.982 35.982 0 0 1-.206-12.632c.725-3.656 2.489-7.635 6.399-8.664l-1.284-1.675c-.24.603-.868.958-1.509.852a2.596 2.596 0 0 1-1.96-1.754c-.872-1.96-.882-4.508-.98-6.654a42.403 42.403 0 0 1 1.96-13.652 54.673 54.673 0 0 1 14.7-22.804 78.882 78.882 0 0 1 11.956-9.36c1.225-.793.088-2.763-1.156-1.96l-.02-.029zm-9.114 124.695h.421a.845.845 0 0 0 .441-.098.974.974 0 0 0 .373-.235c.204-.219.322-.504.333-.803v-.304a1.166 1.166 0 0 0-.294-.5l-.235-.186a1.17 1.17 0 0 0-.578-.147h-.422a1.245 1.245 0 0 0-.803.333.897.897 0 0 0-.236.363.863.863 0 0 0-.098.441v.303c.059.187.16.358.294.5l.236.177c.17.105.367.159.568.156zm3.391 5.508a1.137 1.137 0 1 0-.001-2.273 1.137 1.137 0 0 0 .001 2.273zm4.9 5.39 6.056 9.673c.784 1.235 2.754.098 1.96-1.157l-6.056-9.662c-.774-1.245-2.744-.098-1.96 1.146z"/><path fill="#3EF194" d="M655.776 97.034a123.608 123.608 0 0 1 10.388 21.815c.49 1.362 2.695.774 2.195-.608a125.86 125.86 0 0 0-10.623-22.353 1.136 1.136 0 0 0-1.96 1.146zm6.321-5.488a241.02 241.02 0 0 1 10.525 20.374c.617 1.333 2.577.176 1.96-1.147a240.427 240.427 0 0 0-10.525-20.384 1.147 1.147 0 0 0-1.96 1.157zm5.909-4.224c3.1 4.26 5.794 8.8 8.046 13.563a1.147 1.147 0 0 0 1.558.412 1.166 1.166 0 0 0 .402-1.558 83.012 83.012 0 0 0-8.046-13.573 1.176 1.176 0 0 0-1.558-.402 1.147 1.147 0 0 0-.402 1.558z"/><path fill="#3EF194" d="M659.206 105.363a66.53 66.53 0 0 1 13.299-11.76c1.215-.803.078-2.773-1.147-1.96a68.53 68.53 0 0 0-13.72 12.084c-.98 1.107.647 2.724 1.607 1.607l-.039.029zm1.862 9.066a126.909 126.909 0 0 1 21.099-17.532c1.215-.804.079-2.784-1.156-1.96a131.28 131.28 0 0 0-21.56 17.885c-.98 1.058.588 2.665 1.617 1.617v-.01zm18.934-7.046a1.137 1.137 0 1 0-.001-2.273 1.137 1.137 0 0 0 .001 2.273zm-25.853.843a1.137 1.137 0 1 0 0-2.274 1.137 1.137 0 0 0 0 2.274z"/><path fill="#000" d="m635.637 257.685.304-.412.098-.127c-.078.108.088-.108.108-.128.206-.274.431-.539.647-.793.45-.52.911-1.029 1.401-1.51.49-.48.98-.98 1.47-1.362.255-.225.519-.441.784-.656l.206-.157c-.128.098 0 0 .059 0l.45-.343a1.165 1.165 0 0 0 .412-1.558 1.147 1.147 0 0 0-1.558-.402 28.445 28.445 0 0 0-6.351 6.34 1.158 1.158 0 0 0 .412 1.559c.546.301 1.232.12 1.558-.412v-.039zm3.381 7.203 4.616-6.389a1.133 1.133 0 0 0-.402-1.558 1.175 1.175 0 0 0-1.558.401l-4.616 6.39a1.147 1.147 0 0 0 .402 1.558 1.176 1.176 0 0 0 1.558-.402zm6.654-1.568a1.136 1.136 0 1 0 .002-2.272 1.136 1.136 0 0 0-.002 2.272z"/><path fill="#3EF194" d="M578.062 96.073a37.05 37.05 0 0 1 9.8 4.45c1.235.793 2.372-1.176 1.147-1.96a39.143 39.143 0 0 0-10.33-4.675 1.137 1.137 0 1 0-.597 2.195l-.02-.01zm23.784-43.453 3.352 5.106a1.138 1.138 0 0 0 2.006.022 1.136 1.136 0 0 0-.046-1.169l-3.352-5.105a1.136 1.136 0 0 0-1.96 1.146zm52.323-32.81 1.695 13.553a1.186 1.186 0 0 0 1.147 1.147 1.157 1.157 0 0 0 1.137-1.147l-1.705-13.553a1.167 1.167 0 0 0-1.137-1.147 1.146 1.146 0 0 0-1.137 1.147zm57.056 1.097a65.988 65.988 0 0 0-4.352 12.995c-.313 1.421 1.882 2.038 2.196.598a63.183 63.183 0 0 1 4.125-12.436 1.176 1.176 0 0 0-.411-1.559 1.146 1.146 0 0 0-1.558.402zm20.589 54.959a16.73 16.73 0 0 1 14.093-3.763c1.43.294 2.048-1.902.607-2.196a19.15 19.15 0 0 0-16.307 4.352c-1.107.98.51 2.567 1.607 1.607zm7.821 48.432 9.319-1.696c.604-.171.957-.796.794-1.401a1.176 1.176 0 0 0-1.401-.804l-9.32 1.696a1.146 1.146 0 0 0-.794 1.401c.18.597.795.95 1.402.804z"/></svg>